%TF.GenerationSoftware,KiCad,Pcbnew,9.0.3*%
%TF.CreationDate,2025-09-24T15:40:22-07:00*%
%TF.ProjectId,linklet,6c696e6b-6c65-4742-9e6b-696361645f70,rev?*%
%TF.SameCoordinates,Original*%
%TF.FileFunction,Copper,L3,Inr*%
%TF.FilePolarity,Positive*%
%FSLAX46Y46*%
G04 Gerber Fmt 4.6, Leading zero omitted, Abs format (unit mm)*
G04 Created by KiCad (PCBNEW 9.0.3) date 2025-09-24 15:40:22*
%MOMM*%
%LPD*%
G01*
G04 APERTURE LIST*
%TA.AperFunction,ComponentPad*%
%ADD10R,1.700000X1.700000*%
%TD*%
%TA.AperFunction,ComponentPad*%
%ADD11C,1.700000*%
%TD*%
%TA.AperFunction,HeatsinkPad*%
%ADD12O,1.800000X1.150000*%
%TD*%
%TA.AperFunction,HeatsinkPad*%
%ADD13O,2.000000X1.450000*%
%TD*%
%TA.AperFunction,ComponentPad*%
%ADD14C,0.970000*%
%TD*%
%TA.AperFunction,ViaPad*%
%ADD15C,0.600000*%
%TD*%
G04 APERTURE END LIST*
D10*
%TO.N,+3.3V*%
%TO.C,J7*%
X95890000Y-82000000D03*
D11*
%TO.N,/USER_I2C_SDA*%
X93350000Y-82000000D03*
%TO.N,/USER_I2C_SCL*%
X90810000Y-82000000D03*
%TO.N,/USER_UART_TX*%
X88270000Y-82000000D03*
%TO.N,/USER_UART_RX*%
X85730000Y-82000000D03*
%TO.N,unconnected-(J7-Pin_6-Pad6)*%
X83190000Y-82000000D03*
%TO.N,unconnected-(J7-Pin_7-Pad7)*%
X80650000Y-82000000D03*
%TO.N,GND*%
X78110000Y-82000000D03*
%TD*%
D12*
%TO.N,unconnected-(J1-Shield-Pad6)_3*%
%TO.C,J1*%
X115095000Y-100115000D03*
D13*
%TO.N,unconnected-(J1-Shield-Pad6)_2*%
X111295000Y-99965000D03*
%TO.N,unconnected-(J1-Shield-Pad6)_1*%
X111295000Y-92515000D03*
D12*
%TO.N,unconnected-(J1-Shield-Pad6)*%
X115095000Y-92365000D03*
%TD*%
D10*
%TO.N,+3.3V*%
%TO.C,J2*%
X108120000Y-81750000D03*
D11*
%TO.N,/SWDIO*%
X105580000Y-81750000D03*
%TO.N,/SWCLK*%
X103040000Y-81750000D03*
%TO.N,GND*%
X100500000Y-81750000D03*
%TD*%
D14*
%TO.N,GND*%
%TO.C,J6*%
X63620000Y-108260000D03*
X72380000Y-108260000D03*
%TD*%
D10*
%TO.N,+3.3V*%
%TO.C,J4*%
X84080000Y-112200000D03*
D11*
%TO.N,/I2C_SCL*%
X81540000Y-112200000D03*
%TO.N,/I2C_SDA*%
X79000000Y-112200000D03*
%TO.N,GND*%
X76460000Y-112200000D03*
%TD*%
D10*
%TO.N,+3.3V*%
%TO.C,J3*%
X97120000Y-112200000D03*
D11*
%TO.N,/USART1_TX*%
X94580000Y-112200000D03*
%TO.N,/USART1_RX*%
X92040000Y-112200000D03*
%TO.N,GND*%
X89500000Y-112200000D03*
%TD*%
D15*
%TO.N,GND*%
X107000000Y-100800000D03*
X93106714Y-98356821D03*
X61900000Y-105400000D03*
X58500000Y-105500000D03*
X58400000Y-86300000D03*
X107800000Y-104400000D03*
X66200000Y-106400000D03*
X99900000Y-83500000D03*
X112800000Y-94900000D03*
X107000000Y-99900000D03*
X87700000Y-111900000D03*
X97090000Y-99850000D03*
X109500000Y-103600000D03*
X93400000Y-104350000D03*
X113100000Y-102100000D03*
X87700000Y-104500000D03*
X87450001Y-97959625D03*
X73500000Y-107900000D03*
X62400000Y-108600000D03*
X82600000Y-99800000D03*
X93000000Y-94700000D03*
X88000000Y-93800000D03*
X72100000Y-83500000D03*
X73500000Y-86100000D03*
X76200000Y-82900000D03*
X87200000Y-101900000D03*
X97900000Y-95162500D03*
X87700000Y-96200000D03*
X75500000Y-111200000D03*
X110400000Y-103600000D03*
X86000000Y-95700000D03*
X60000000Y-106000000D03*
X106600000Y-104400000D03*
%TO.N,+3.3V*%
X92400000Y-86000000D03*
X98600000Y-112600000D03*
X108600000Y-107200000D03*
X91000000Y-89800000D03*
X77000000Y-85600000D03*
X82800000Y-109100000D03*
X91300000Y-91600000D03*
X76800000Y-109600000D03*
X86600000Y-104750000D03*
X65700000Y-84300000D03*
X109700000Y-82500000D03*
X98900000Y-103300000D03*
X101000000Y-93900000D03*
X94900000Y-86100000D03*
X103800000Y-107600000D03*
X106100000Y-107600000D03*
X78700000Y-104600000D03*
X79000000Y-85600000D03*
X108600000Y-106500000D03*
X104500000Y-95100000D03*
X97600000Y-83100000D03*
X105400000Y-104400000D03*
X104400000Y-104400000D03*
X88900000Y-95400000D03*
X111400000Y-107000000D03*
%TO.N,+3.3VA*%
X88309620Y-99709620D03*
X88600000Y-102450000D03*
%TO.N,/NRST*%
X92650000Y-97700000D03*
X89750000Y-105650000D03*
%TO.N,/TX_LED*%
X94490380Y-94690380D03*
X79000000Y-91200000D03*
%TO.N,/RX_LED*%
X94515103Y-91215103D03*
X77000000Y-91200000D03*
%TO.N,/USART1_TX*%
X94700000Y-110000000D03*
X97900000Y-98000000D03*
%TO.N,/I2C_SDA*%
X96500000Y-100500000D03*
X92500000Y-105000000D03*
%TO.N,/BOOT0*%
X95400000Y-90600000D03*
X70200000Y-85000000D03*
%TO.N,/RFM69HCW_IRQ*%
X70000000Y-105050000D03*
X94992499Y-100535021D03*
%TO.N,/RFM69HCW_MISO*%
X71100000Y-91100000D03*
X94193879Y-100488064D03*
%TO.N,/RFM69HCW_SCK*%
X93320000Y-100410000D03*
X67200000Y-90700000D03*
%TO.N,/RFM69HCW_CS*%
X65200000Y-90900000D03*
X92500000Y-100500000D03*
%TO.N,/RFM69HCW_RESET*%
X62600000Y-90400000D03*
X93700000Y-105650000D03*
%TO.N,/RFM69HCW_MOSI*%
X94300000Y-103100000D03*
X67800000Y-86000000D03*
%TD*%
%TA.AperFunction,Conductor*%
%TO.N,+3.3V*%
G36*
X114003736Y-79500726D02*
G01*
X114293796Y-79518271D01*
X114308659Y-79520076D01*
X114590798Y-79571780D01*
X114605335Y-79575363D01*
X114879172Y-79660695D01*
X114893163Y-79666000D01*
X115154743Y-79783727D01*
X115167989Y-79790680D01*
X115413465Y-79939075D01*
X115425776Y-79947573D01*
X115651573Y-80124473D01*
X115662781Y-80134403D01*
X115865596Y-80337218D01*
X115875526Y-80348426D01*
X115995481Y-80501538D01*
X116052422Y-80574217D01*
X116060926Y-80586537D01*
X116104070Y-80657906D01*
X116209316Y-80832004D01*
X116216275Y-80845263D01*
X116333997Y-81106831D01*
X116339306Y-81120832D01*
X116424635Y-81394663D01*
X116428219Y-81409201D01*
X116479923Y-81691340D01*
X116481728Y-81706205D01*
X116499274Y-81996263D01*
X116499500Y-82003750D01*
X116499500Y-92059961D01*
X116479815Y-92127000D01*
X116427011Y-92172755D01*
X116357853Y-92182699D01*
X116294297Y-92153674D01*
X116260939Y-92107414D01*
X116195859Y-91950297D01*
X116195854Y-91950288D01*
X116100045Y-91806901D01*
X116100042Y-91806897D01*
X115978102Y-91684957D01*
X115978098Y-91684954D01*
X115834711Y-91589145D01*
X115834698Y-91589138D01*
X115675378Y-91523146D01*
X115675366Y-91523143D01*
X115506232Y-91489500D01*
X115506229Y-91489500D01*
X114683771Y-91489500D01*
X114683768Y-91489500D01*
X114514633Y-91523143D01*
X114514621Y-91523146D01*
X114355301Y-91589138D01*
X114355288Y-91589145D01*
X114211901Y-91684954D01*
X114211897Y-91684957D01*
X114089957Y-91806897D01*
X114089954Y-91806901D01*
X113994145Y-91950288D01*
X113994138Y-91950301D01*
X113928146Y-92109621D01*
X113928143Y-92109633D01*
X113894500Y-92278766D01*
X113894500Y-92451233D01*
X113928143Y-92620366D01*
X113928146Y-92620378D01*
X113994138Y-92779698D01*
X113994145Y-92779711D01*
X114089954Y-92923098D01*
X114089957Y-92923102D01*
X114211897Y-93045042D01*
X114211901Y-93045045D01*
X114355288Y-93140854D01*
X114355301Y-93140861D01*
X114488142Y-93195885D01*
X114514626Y-93206855D01*
X114683384Y-93240423D01*
X114683766Y-93240499D01*
X114683769Y-93240500D01*
X114683771Y-93240500D01*
X115506231Y-93240500D01*
X115506232Y-93240499D01*
X115675374Y-93206855D01*
X115834705Y-93140858D01*
X115978099Y-93045045D01*
X116100045Y-92923099D01*
X116195858Y-92779705D01*
X116260939Y-92622586D01*
X116304780Y-92568182D01*
X116371074Y-92546117D01*
X116438773Y-92563396D01*
X116486384Y-92614533D01*
X116499500Y-92670038D01*
X116499500Y-99809961D01*
X116479815Y-99877000D01*
X116427011Y-99922755D01*
X116357853Y-99932699D01*
X116294297Y-99903674D01*
X116260939Y-99857414D01*
X116195859Y-99700297D01*
X116195854Y-99700288D01*
X116100045Y-99556901D01*
X116100042Y-99556897D01*
X115978102Y-99434957D01*
X115978098Y-99434954D01*
X115834711Y-99339145D01*
X115834698Y-99339138D01*
X115675378Y-99273146D01*
X115675366Y-99273143D01*
X115506232Y-99239500D01*
X115506229Y-99239500D01*
X114683771Y-99239500D01*
X114683768Y-99239500D01*
X114514633Y-99273143D01*
X114514621Y-99273146D01*
X114355301Y-99339138D01*
X114355288Y-99339145D01*
X114211901Y-99434954D01*
X114211897Y-99434957D01*
X114089957Y-99556897D01*
X114089954Y-99556901D01*
X113994145Y-99700288D01*
X113994138Y-99700301D01*
X113928146Y-99859621D01*
X113928143Y-99859633D01*
X113894500Y-100028766D01*
X113894500Y-100201233D01*
X113928143Y-100370366D01*
X113928146Y-100370378D01*
X113994138Y-100529698D01*
X113994145Y-100529711D01*
X114089954Y-100673098D01*
X114089957Y-100673102D01*
X114211897Y-100795042D01*
X114211901Y-100795045D01*
X114355288Y-100890854D01*
X114355301Y-100890861D01*
X114500708Y-100951090D01*
X114514626Y-100956855D01*
X114683766Y-100990499D01*
X114683769Y-100990500D01*
X114683771Y-100990500D01*
X115506231Y-100990500D01*
X115506232Y-100990499D01*
X115675374Y-100956855D01*
X115812028Y-100900251D01*
X115834698Y-100890861D01*
X115834698Y-100890860D01*
X115834705Y-100890858D01*
X115978099Y-100795045D01*
X116100045Y-100673099D01*
X116195858Y-100529705D01*
X116226402Y-100455966D01*
X116260939Y-100372586D01*
X116304780Y-100318182D01*
X116371074Y-100296117D01*
X116438773Y-100313396D01*
X116486384Y-100364533D01*
X116499500Y-100420038D01*
X116499500Y-111996249D01*
X116499274Y-112003736D01*
X116481728Y-112293794D01*
X116479923Y-112308659D01*
X116428219Y-112590798D01*
X116424635Y-112605336D01*
X116339306Y-112879167D01*
X116333997Y-112893168D01*
X116216275Y-113154736D01*
X116209316Y-113167995D01*
X116060928Y-113413459D01*
X116052422Y-113425782D01*
X115875526Y-113651573D01*
X115865596Y-113662781D01*
X115662781Y-113865596D01*
X115651573Y-113875526D01*
X115425782Y-114052422D01*
X115413459Y-114060928D01*
X115167995Y-114209316D01*
X115154736Y-114216275D01*
X114893168Y-114333997D01*
X114879167Y-114339306D01*
X114605336Y-114424635D01*
X114590798Y-114428219D01*
X114308659Y-114479923D01*
X114293794Y-114481728D01*
X114004010Y-114499256D01*
X113996072Y-114499481D01*
X59075615Y-114299771D01*
X59075600Y-114299771D01*
X59066782Y-114299737D01*
X59065892Y-114299500D01*
X59003564Y-114299500D01*
X59003298Y-114299499D01*
X59003249Y-114299484D01*
X58996277Y-114299274D01*
X58706205Y-114281728D01*
X58691340Y-114279923D01*
X58409201Y-114228219D01*
X58394663Y-114224635D01*
X58120832Y-114139306D01*
X58106831Y-114133997D01*
X57845263Y-114016275D01*
X57832004Y-114009316D01*
X57586540Y-113860928D01*
X57574217Y-113852422D01*
X57348426Y-113675526D01*
X57337218Y-113665596D01*
X57134403Y-113462781D01*
X57124473Y-113451573D01*
X57089699Y-113407187D01*
X56947573Y-113225776D01*
X56939075Y-113213465D01*
X56790680Y-112967989D01*
X56783727Y-112954743D01*
X56666000Y-112693163D01*
X56660693Y-112679167D01*
X56637686Y-112605336D01*
X56575363Y-112405335D01*
X56571780Y-112390798D01*
X56569897Y-112380522D01*
X56520075Y-112108657D01*
X56518271Y-112093794D01*
X56513021Y-112007007D01*
X56500726Y-111803736D01*
X56500500Y-111796249D01*
X56500500Y-111693713D01*
X57649500Y-111693713D01*
X57649500Y-111906287D01*
X57656424Y-111950000D01*
X57681678Y-112109454D01*
X57682754Y-112116243D01*
X57747738Y-112316243D01*
X57748444Y-112318414D01*
X57844951Y-112507820D01*
X57969890Y-112679786D01*
X58120213Y-112830109D01*
X58292179Y-112955048D01*
X58292181Y-112955049D01*
X58292184Y-112955051D01*
X58481588Y-113051557D01*
X58683757Y-113117246D01*
X58893713Y-113150500D01*
X58893714Y-113150500D01*
X59106286Y-113150500D01*
X59106287Y-113150500D01*
X59316243Y-113117246D01*
X59518412Y-113051557D01*
X59707816Y-112955051D01*
X59782092Y-112901087D01*
X59879786Y-112830109D01*
X59879788Y-112830106D01*
X59879792Y-112830104D01*
X60030104Y-112679792D01*
X60030106Y-112679788D01*
X60030109Y-112679786D01*
X60155048Y-112507820D01*
X60155047Y-112507820D01*
X60155051Y-112507816D01*
X60251557Y-112318412D01*
X60317246Y-112116243D01*
X60350500Y-111906287D01*
X60350500Y-111693713D01*
X60317246Y-111483757D01*
X60251557Y-111281588D01*
X60169704Y-111120943D01*
X74899500Y-111120943D01*
X74899500Y-111279057D01*
X74937127Y-111419481D01*
X74940423Y-111431783D01*
X74940426Y-111431790D01*
X75019475Y-111568709D01*
X75019479Y-111568714D01*
X75019480Y-111568716D01*
X75131284Y-111680520D01*
X75131286Y-111680521D01*
X75131290Y-111680524D01*
X75224102Y-111734108D01*
X75268216Y-111759577D01*
X75268223Y-111759579D01*
X75272647Y-111761412D01*
X75327050Y-111805254D01*
X75349114Y-111871548D01*
X75343125Y-111914287D01*
X75337829Y-111930586D01*
X75337829Y-111930587D01*
X75309500Y-112109448D01*
X75309500Y-112290551D01*
X75337829Y-112469410D01*
X75393787Y-112641636D01*
X75393788Y-112641639D01*
X75476006Y-112802997D01*
X75582441Y-112949494D01*
X75582445Y-112949499D01*
X75710500Y-113077554D01*
X75710505Y-113077558D01*
X75738427Y-113097844D01*
X75857006Y-113183996D01*
X75962484Y-113237740D01*
X76018360Y-113266211D01*
X76018363Y-113266212D01*
X76097997Y-113292086D01*
X76190591Y-113322171D01*
X76273429Y-113335291D01*
X76369449Y-113350500D01*
X76369454Y-113350500D01*
X76550551Y-113350500D01*
X76637259Y-113336765D01*
X76729409Y-113322171D01*
X76901639Y-113266211D01*
X77062994Y-113183996D01*
X77209501Y-113077553D01*
X77337553Y-112949501D01*
X77443996Y-112802994D01*
X77526211Y-112641639D01*
X77582171Y-112469409D01*
X77598519Y-112366191D01*
X77607527Y-112309321D01*
X77637456Y-112246186D01*
X77696768Y-112209255D01*
X77766630Y-112210253D01*
X77824863Y-112248863D01*
X77852473Y-112309321D01*
X77877829Y-112469410D01*
X77933787Y-112641636D01*
X77933788Y-112641639D01*
X78016006Y-112802997D01*
X78122441Y-112949494D01*
X78122445Y-112949499D01*
X78250500Y-113077554D01*
X78250505Y-113077558D01*
X78278427Y-113097844D01*
X78397006Y-113183996D01*
X78502484Y-113237740D01*
X78558360Y-113266211D01*
X78558363Y-113266212D01*
X78637997Y-113292086D01*
X78730591Y-113322171D01*
X78813429Y-113335291D01*
X78909449Y-113350500D01*
X78909454Y-113350500D01*
X79090551Y-113350500D01*
X79177259Y-113336765D01*
X79269409Y-113322171D01*
X79441639Y-113266211D01*
X79602994Y-113183996D01*
X79749501Y-113077553D01*
X79877553Y-112949501D01*
X79983996Y-112802994D01*
X80066211Y-112641639D01*
X80122171Y-112469409D01*
X80138519Y-112366191D01*
X80147527Y-112309321D01*
X80177456Y-112246186D01*
X80236768Y-112209255D01*
X80306630Y-112210253D01*
X80364863Y-112248863D01*
X80392473Y-112309321D01*
X80417829Y-112469410D01*
X80473787Y-112641636D01*
X80473788Y-112641639D01*
X80556006Y-112802997D01*
X80662441Y-112949494D01*
X80662445Y-112949499D01*
X80790500Y-113077554D01*
X80790505Y-113077558D01*
X80818427Y-113097844D01*
X80937006Y-113183996D01*
X81042484Y-113237740D01*
X81098360Y-113266211D01*
X81098363Y-113266212D01*
X81177997Y-113292086D01*
X81270591Y-113322171D01*
X81353429Y-113335291D01*
X81449449Y-113350500D01*
X81449454Y-113350500D01*
X81630551Y-113350500D01*
X81717259Y-113336765D01*
X81809409Y-113322171D01*
X81981639Y-113266211D01*
X82142994Y-113183996D01*
X82289501Y-113077553D01*
X82417553Y-112949501D01*
X82417555Y-112949497D01*
X82417558Y-112949495D01*
X82505682Y-112828202D01*
X82561011Y-112785536D01*
X82630625Y-112779557D01*
X82692420Y-112812162D01*
X82726777Y-112873001D01*
X82730000Y-112901087D01*
X82730000Y-113097844D01*
X82736401Y-113157372D01*
X82736403Y-113157379D01*
X82786645Y-113292086D01*
X82786649Y-113292093D01*
X82872809Y-113407187D01*
X82872812Y-113407190D01*
X82987906Y-113493350D01*
X82987913Y-113493354D01*
X83122620Y-113543596D01*
X83122627Y-113543598D01*
X83182155Y-113549999D01*
X83182172Y-113550000D01*
X83830000Y-113550000D01*
X83830000Y-112633012D01*
X83887007Y-112665925D01*
X84014174Y-112700000D01*
X84145826Y-112700000D01*
X84272993Y-112665925D01*
X84330000Y-112633012D01*
X84330000Y-113550000D01*
X84977828Y-113550000D01*
X84977844Y-113549999D01*
X85037372Y-113543598D01*
X85037379Y-113543596D01*
X85172086Y-113493354D01*
X85172093Y-113493350D01*
X85287187Y-113407190D01*
X85287190Y-113407187D01*
X85373350Y-113292093D01*
X85373354Y-113292086D01*
X85423596Y-113157379D01*
X85423598Y-113157372D01*
X85429999Y-113097844D01*
X85430000Y-113097827D01*
X85430000Y-112450000D01*
X84513012Y-112450000D01*
X84545925Y-112392993D01*
X84580000Y-112265826D01*
X84580000Y-112134174D01*
X84545925Y-112007007D01*
X84513012Y-111950000D01*
X85430000Y-111950000D01*
X85430000Y-111820943D01*
X87099500Y-111820943D01*
X87099500Y-111979056D01*
X87140423Y-112131783D01*
X87140426Y-112131790D01*
X87219475Y-112268709D01*
X87219479Y-112268714D01*
X87219480Y-112268716D01*
X87331284Y-112380520D01*
X87331286Y-112380521D01*
X87331290Y-112380524D01*
X87451628Y-112450000D01*
X87468216Y-112459577D01*
X87620943Y-112500500D01*
X87620945Y-112500500D01*
X87779055Y-112500500D01*
X87779057Y-112500500D01*
X87931784Y-112459577D01*
X88068716Y-112380520D01*
X88151329Y-112297906D01*
X88212648Y-112264424D01*
X88282340Y-112269408D01*
X88338274Y-112311279D01*
X88361480Y-112366191D01*
X88377829Y-112469410D01*
X88433787Y-112641636D01*
X88433788Y-112641639D01*
X88516006Y-112802997D01*
X88622441Y-112949494D01*
X88622445Y-112949499D01*
X88750500Y-113077554D01*
X88750505Y-113077558D01*
X88778427Y-113097844D01*
X88897006Y-113183996D01*
X89002484Y-113237740D01*
X89058360Y-113266211D01*
X89058363Y-113266212D01*
X89137997Y-113292086D01*
X89230591Y-113322171D01*
X89313429Y-113335291D01*
X89409449Y-113350500D01*
X89409454Y-113350500D01*
X89590551Y-113350500D01*
X89677259Y-113336765D01*
X89769409Y-113322171D01*
X89941639Y-113266211D01*
X90102994Y-113183996D01*
X90249501Y-113077553D01*
X90377553Y-112949501D01*
X90483996Y-112802994D01*
X90566211Y-112641639D01*
X90622171Y-112469409D01*
X90638519Y-112366191D01*
X90647527Y-112309321D01*
X90677456Y-112246186D01*
X90736768Y-112209255D01*
X90806630Y-112210253D01*
X90864863Y-112248863D01*
X90892473Y-112309321D01*
X90917829Y-112469410D01*
X90973787Y-112641636D01*
X90973788Y-112641639D01*
X91056006Y-112802997D01*
X91162441Y-112949494D01*
X91162445Y-112949499D01*
X91290500Y-113077554D01*
X91290505Y-113077558D01*
X91318427Y-113097844D01*
X91437006Y-113183996D01*
X91542484Y-113237740D01*
X91598360Y-113266211D01*
X91598363Y-113266212D01*
X91677997Y-113292086D01*
X91770591Y-113322171D01*
X91853429Y-113335291D01*
X91949449Y-113350500D01*
X91949454Y-113350500D01*
X92130551Y-113350500D01*
X92217259Y-113336765D01*
X92309409Y-113322171D01*
X92481639Y-113266211D01*
X92642994Y-113183996D01*
X92789501Y-113077553D01*
X92917553Y-112949501D01*
X93023996Y-112802994D01*
X93106211Y-112641639D01*
X93162171Y-112469409D01*
X93178519Y-112366191D01*
X93187527Y-112309321D01*
X93217456Y-112246186D01*
X93276768Y-112209255D01*
X93346630Y-112210253D01*
X93404863Y-112248863D01*
X93432473Y-112309321D01*
X93457829Y-112469410D01*
X93513787Y-112641636D01*
X93513788Y-112641639D01*
X93596006Y-112802997D01*
X93702441Y-112949494D01*
X93702445Y-112949499D01*
X93830500Y-113077554D01*
X93830505Y-113077558D01*
X93858427Y-113097844D01*
X93977006Y-113183996D01*
X94082484Y-113237740D01*
X94138360Y-113266211D01*
X94138363Y-113266212D01*
X94217997Y-113292086D01*
X94310591Y-113322171D01*
X94393429Y-113335291D01*
X94489449Y-113350500D01*
X94489454Y-113350500D01*
X94670551Y-113350500D01*
X94757259Y-113336765D01*
X94849409Y-113322171D01*
X95021639Y-113266211D01*
X95182994Y-113183996D01*
X95329501Y-113077553D01*
X95457553Y-112949501D01*
X95457555Y-112949497D01*
X95457558Y-112949495D01*
X95545682Y-112828202D01*
X95601011Y-112785536D01*
X95670625Y-112779557D01*
X95732420Y-112812162D01*
X95766777Y-112873001D01*
X95770000Y-112901087D01*
X95770000Y-113097844D01*
X95776401Y-113157372D01*
X95776403Y-113157379D01*
X95826645Y-113292086D01*
X95826649Y-113292093D01*
X95912809Y-113407187D01*
X95912812Y-113407190D01*
X96027906Y-113493350D01*
X96027913Y-113493354D01*
X96162620Y-113543596D01*
X96162627Y-113543598D01*
X96222155Y-113549999D01*
X96222172Y-113550000D01*
X96870000Y-113550000D01*
X96870000Y-112633012D01*
X96927007Y-112665925D01*
X97054174Y-112700000D01*
X97185826Y-112700000D01*
X97312993Y-112665925D01*
X97370000Y-112633012D01*
X97370000Y-113550000D01*
X98017828Y-113550000D01*
X98017844Y-113549999D01*
X98077372Y-113543598D01*
X98077379Y-113543596D01*
X98212086Y-113493354D01*
X98212093Y-113493350D01*
X98327187Y-113407190D01*
X98327190Y-113407187D01*
X98413350Y-113292093D01*
X98413354Y-113292086D01*
X98463596Y-113157379D01*
X98463598Y-113157372D01*
X98469999Y-113097844D01*
X98470000Y-113097827D01*
X98470000Y-112450000D01*
X97553012Y-112450000D01*
X97585925Y-112392993D01*
X97620000Y-112265826D01*
X97620000Y-112134174D01*
X97585925Y-112007007D01*
X97553012Y-111950000D01*
X98470000Y-111950000D01*
X98470000Y-111893713D01*
X112649500Y-111893713D01*
X112649500Y-112106286D01*
X112681967Y-112311279D01*
X112682754Y-112316243D01*
X112745001Y-112507820D01*
X112748444Y-112518414D01*
X112844951Y-112707820D01*
X112969890Y-112879786D01*
X113120213Y-113030109D01*
X113292179Y-113155048D01*
X113292181Y-113155049D01*
X113292184Y-113155051D01*
X113481588Y-113251557D01*
X113683757Y-113317246D01*
X113893713Y-113350500D01*
X113893714Y-113350500D01*
X114106286Y-113350500D01*
X114106287Y-113350500D01*
X114316243Y-113317246D01*
X114518412Y-113251557D01*
X114707816Y-113155051D01*
X114729789Y-113139086D01*
X114879786Y-113030109D01*
X114879788Y-113030106D01*
X114879792Y-113030104D01*
X115030104Y-112879792D01*
X115030106Y-112879788D01*
X115030109Y-112879786D01*
X115155048Y-112707820D01*
X115155047Y-112707820D01*
X115155051Y-112707816D01*
X115251557Y-112518412D01*
X115317246Y-112316243D01*
X115350500Y-112106287D01*
X115350500Y-111893713D01*
X115317246Y-111683757D01*
X115251557Y-111481588D01*
X115155051Y-111292184D01*
X115155049Y-111292181D01*
X115155048Y-111292179D01*
X115030109Y-111120213D01*
X114879786Y-110969890D01*
X114707820Y-110844951D01*
X114518414Y-110748444D01*
X114518413Y-110748443D01*
X114518412Y-110748443D01*
X114316243Y-110682754D01*
X114316241Y-110682753D01*
X114316240Y-110682753D01*
X114154957Y-110657208D01*
X114106287Y-110649500D01*
X113893713Y-110649500D01*
X113845042Y-110657208D01*
X113683760Y-110682753D01*
X113481585Y-110748444D01*
X113292179Y-110844951D01*
X113120213Y-110969890D01*
X112969890Y-111120213D01*
X112844951Y-111292179D01*
X112748444Y-111481585D01*
X112682753Y-111683760D01*
X112649500Y-111893713D01*
X98470000Y-111893713D01*
X98470000Y-111302172D01*
X98469999Y-111302155D01*
X98463598Y-111242627D01*
X98463596Y-111242620D01*
X98413354Y-111107913D01*
X98413350Y-111107906D01*
X98327190Y-110992812D01*
X98327187Y-110992809D01*
X98212093Y-110906649D01*
X98212086Y-110906645D01*
X98077379Y-110856403D01*
X98077372Y-110856401D01*
X98017844Y-110850000D01*
X97370000Y-110850000D01*
X97370000Y-111766988D01*
X97312993Y-111734075D01*
X97185826Y-111700000D01*
X97054174Y-111700000D01*
X96927007Y-111734075D01*
X96870000Y-111766988D01*
X96870000Y-110850000D01*
X96222155Y-110850000D01*
X96162627Y-110856401D01*
X96162620Y-110856403D01*
X96027913Y-110906645D01*
X96027906Y-110906649D01*
X95912812Y-110992809D01*
X95912809Y-110992812D01*
X95826649Y-111107906D01*
X95826645Y-111107913D01*
X95776403Y-111242620D01*
X95776401Y-111242627D01*
X95770000Y-111302155D01*
X95770000Y-111498912D01*
X95750315Y-111565951D01*
X95697511Y-111611706D01*
X95628353Y-111621650D01*
X95564797Y-111592625D01*
X95545682Y-111571797D01*
X95457558Y-111450505D01*
X95457554Y-111450500D01*
X95329499Y-111322445D01*
X95329494Y-111322441D01*
X95182997Y-111216006D01*
X95182996Y-111216005D01*
X95182994Y-111216004D01*
X95131300Y-111189664D01*
X95021639Y-111133788D01*
X95021636Y-111133787D01*
X94849410Y-111077829D01*
X94670551Y-111049500D01*
X94670546Y-111049500D01*
X94489454Y-111049500D01*
X94489449Y-111049500D01*
X94310589Y-111077829D01*
X94138363Y-111133787D01*
X94138360Y-111133788D01*
X93977002Y-111216006D01*
X93830505Y-111322441D01*
X93830500Y-111322445D01*
X93702445Y-111450500D01*
X93702441Y-111450505D01*
X93596006Y-111597002D01*
X93513788Y-111758360D01*
X93513787Y-111758363D01*
X93457829Y-111930589D01*
X93432473Y-112090678D01*
X93402544Y-112153813D01*
X93343232Y-112190744D01*
X93273369Y-112189746D01*
X93215137Y-112151136D01*
X93187527Y-112090678D01*
X93169847Y-111979056D01*
X93162171Y-111930591D01*
X93119708Y-111799901D01*
X93106212Y-111758363D01*
X93106211Y-111758360D01*
X93073271Y-111693713D01*
X93023996Y-111597006D01*
X92976247Y-111531285D01*
X92917558Y-111450505D01*
X92917554Y-111450500D01*
X92789499Y-111322445D01*
X92789494Y-111322441D01*
X92642997Y-111216006D01*
X92642996Y-111216005D01*
X92642994Y-111216004D01*
X92591300Y-111189664D01*
X92481639Y-111133788D01*
X92481636Y-111133787D01*
X92309410Y-111077829D01*
X92130551Y-111049500D01*
X92130546Y-111049500D01*
X91949454Y-111049500D01*
X91949449Y-111049500D01*
X91770589Y-111077829D01*
X91598363Y-111133787D01*
X91598360Y-111133788D01*
X91437002Y-111216006D01*
X91290505Y-111322441D01*
X91290500Y-111322445D01*
X91162445Y-111450500D01*
X91162441Y-111450505D01*
X91056006Y-111597002D01*
X90973788Y-111758360D01*
X90973787Y-111758363D01*
X90917829Y-111930589D01*
X90892473Y-112090678D01*
X90862544Y-112153813D01*
X90803232Y-112190744D01*
X90733369Y-112189746D01*
X90675137Y-112151136D01*
X90647527Y-112090678D01*
X90629847Y-111979056D01*
X90622171Y-111930591D01*
X90579708Y-111799901D01*
X90566212Y-111758363D01*
X90566211Y-111758360D01*
X90533271Y-111693713D01*
X90483996Y-111597006D01*
X90436247Y-111531285D01*
X90377558Y-111450505D01*
X90377554Y-111450500D01*
X90249499Y-111322445D01*
X90249494Y-111322441D01*
X90102997Y-111216006D01*
X90102996Y-111216005D01*
X90102994Y-111216004D01*
X90051300Y-111189664D01*
X89941639Y-111133788D01*
X89941636Y-111133787D01*
X89769410Y-111077829D01*
X89590551Y-111049500D01*
X89590546Y-111049500D01*
X89409454Y-111049500D01*
X89409449Y-111049500D01*
X89230589Y-111077829D01*
X89058363Y-111133787D01*
X89058360Y-111133788D01*
X88897002Y-111216006D01*
X88750505Y-111322441D01*
X88750500Y-111322445D01*
X88622445Y-111450500D01*
X88622441Y-111450505D01*
X88516004Y-111597004D01*
X88480198Y-111667276D01*
X88432223Y-111718072D01*
X88364402Y-111734866D01*
X88298267Y-111712328D01*
X88262326Y-111672979D01*
X88259577Y-111668218D01*
X88259577Y-111668216D01*
X88180520Y-111531284D01*
X88068716Y-111419480D01*
X88068714Y-111419479D01*
X88068709Y-111419475D01*
X87931790Y-111340426D01*
X87931786Y-111340424D01*
X87931784Y-111340423D01*
X87779057Y-111299500D01*
X87620943Y-111299500D01*
X87468216Y-111340423D01*
X87468209Y-111340426D01*
X87331290Y-111419475D01*
X87331282Y-111419481D01*
X87219481Y-111531282D01*
X87219475Y-111531290D01*
X87140426Y-111668209D01*
X87140423Y-111668216D01*
X87099500Y-111820943D01*
X85430000Y-111820943D01*
X85430000Y-111302172D01*
X85429999Y-111302155D01*
X85423598Y-111242627D01*
X85423596Y-111242620D01*
X85373354Y-111107913D01*
X85373350Y-111107906D01*
X85287190Y-110992812D01*
X85287187Y-110992809D01*
X85172093Y-110906649D01*
X85172086Y-110906645D01*
X85037379Y-110856403D01*
X85037372Y-110856401D01*
X84977844Y-110850000D01*
X84330000Y-110850000D01*
X84330000Y-111766988D01*
X84272993Y-111734075D01*
X84145826Y-111700000D01*
X84014174Y-111700000D01*
X83887007Y-111734075D01*
X83830000Y-111766988D01*
X83830000Y-110850000D01*
X83182155Y-110850000D01*
X83122627Y-110856401D01*
X83122620Y-110856403D01*
X82987913Y-110906645D01*
X82987906Y-110906649D01*
X82872812Y-110992809D01*
X82872809Y-110992812D01*
X82786649Y-111107906D01*
X82786645Y-111107913D01*
X82736403Y-111242620D01*
X82736401Y-111242627D01*
X82730000Y-111302155D01*
X82730000Y-111498912D01*
X82710315Y-111565951D01*
X82657511Y-111611706D01*
X82588353Y-111621650D01*
X82524797Y-111592625D01*
X82505682Y-111571797D01*
X82417558Y-111450505D01*
X82417554Y-111450500D01*
X82289499Y-111322445D01*
X82289494Y-111322441D01*
X82142997Y-111216006D01*
X82142996Y-111216005D01*
X82142994Y-111216004D01*
X82091300Y-111189664D01*
X81981639Y-111133788D01*
X81981636Y-111133787D01*
X81809410Y-111077829D01*
X81630551Y-111049500D01*
X81630546Y-111049500D01*
X81449454Y-111049500D01*
X81449449Y-111049500D01*
X81270589Y-111077829D01*
X81098363Y-111133787D01*
X81098360Y-111133788D01*
X80937002Y-111216006D01*
X80790505Y-111322441D01*
X80790500Y-111322445D01*
X80662445Y-111450500D01*
X80662441Y-111450505D01*
X80556006Y-111597002D01*
X80473788Y-111758360D01*
X80473787Y-111758363D01*
X80417829Y-111930589D01*
X80392473Y-112090678D01*
X80362544Y-112153813D01*
X80303232Y-112190744D01*
X80233369Y-112189746D01*
X80175137Y-112151136D01*
X80147527Y-112090678D01*
X80129847Y-111979056D01*
X80122171Y-111930591D01*
X80079708Y-111799901D01*
X80066212Y-111758363D01*
X80066211Y-111758360D01*
X80033271Y-111693713D01*
X79983996Y-111597006D01*
X79936247Y-111531285D01*
X79877558Y-111450505D01*
X79877554Y-111450500D01*
X79749499Y-111322445D01*
X79749494Y-111322441D01*
X79602997Y-111216006D01*
X79602996Y-111216005D01*
X79602994Y-111216004D01*
X79551300Y-111189664D01*
X79441639Y-111133788D01*
X79441636Y-111133787D01*
X79269410Y-111077829D01*
X79090551Y-111049500D01*
X79090546Y-111049500D01*
X78909454Y-111049500D01*
X78909449Y-111049500D01*
X78730589Y-111077829D01*
X78558363Y-111133787D01*
X78558360Y-111133788D01*
X78397002Y-111216006D01*
X78250505Y-111322441D01*
X78250500Y-111322445D01*
X78122445Y-111450500D01*
X78122441Y-111450505D01*
X78016006Y-111597002D01*
X77933788Y-111758360D01*
X77933787Y-111758363D01*
X77877829Y-111930589D01*
X77852473Y-112090678D01*
X77822544Y-112153813D01*
X77763232Y-112190744D01*
X77693369Y-112189746D01*
X77635137Y-112151136D01*
X77607527Y-112090678D01*
X77589847Y-111979056D01*
X77582171Y-111930591D01*
X77539708Y-111799901D01*
X77526212Y-111758363D01*
X77526211Y-111758360D01*
X77493271Y-111693713D01*
X77443996Y-111597006D01*
X77396247Y-111531285D01*
X77337558Y-111450505D01*
X77337554Y-111450500D01*
X77209499Y-111322445D01*
X77209494Y-111322441D01*
X77062997Y-111216006D01*
X77062996Y-111216005D01*
X77062994Y-111216004D01*
X77011300Y-111189664D01*
X76901639Y-111133788D01*
X76901636Y-111133787D01*
X76729410Y-111077829D01*
X76550551Y-111049500D01*
X76550546Y-111049500D01*
X76369454Y-111049500D01*
X76369449Y-111049500D01*
X76203361Y-111075806D01*
X76134068Y-111066852D01*
X76080616Y-111021855D01*
X76064188Y-110985426D01*
X76059577Y-110968216D01*
X76024032Y-110906649D01*
X75980524Y-110831290D01*
X75980518Y-110831282D01*
X75868717Y-110719481D01*
X75868709Y-110719475D01*
X75731790Y-110640426D01*
X75731786Y-110640424D01*
X75731784Y-110640423D01*
X75579057Y-110599500D01*
X75420943Y-110599500D01*
X75268216Y-110640423D01*
X75268209Y-110640426D01*
X75131290Y-110719475D01*
X75131282Y-110719481D01*
X75019481Y-110831282D01*
X75019475Y-110831290D01*
X74940426Y-110968209D01*
X74940423Y-110968216D01*
X74899500Y-111120943D01*
X60169704Y-111120943D01*
X60155051Y-111092184D01*
X60155049Y-111092181D01*
X60155048Y-111092179D01*
X60030109Y-110920213D01*
X59879786Y-110769890D01*
X59707820Y-110644951D01*
X59518414Y-110548444D01*
X59518413Y-110548443D01*
X59518412Y-110548443D01*
X59316243Y-110482754D01*
X59316241Y-110482753D01*
X59316240Y-110482753D01*
X59154957Y-110457208D01*
X59106287Y-110449500D01*
X58893713Y-110449500D01*
X58845042Y-110457208D01*
X58683760Y-110482753D01*
X58481585Y-110548444D01*
X58292179Y-110644951D01*
X58120213Y-110769890D01*
X57969890Y-110920213D01*
X57844951Y-111092179D01*
X57748444Y-111281585D01*
X57682753Y-111483760D01*
X57664817Y-111597004D01*
X57649500Y-111693713D01*
X56500500Y-111693713D01*
X56500500Y-109920943D01*
X94099500Y-109920943D01*
X94099500Y-110079056D01*
X94140423Y-110231783D01*
X94140426Y-110231790D01*
X94219475Y-110368709D01*
X94219479Y-110368714D01*
X94219480Y-110368716D01*
X94331284Y-110480520D01*
X94331286Y-110480521D01*
X94331290Y-110480524D01*
X94335153Y-110482754D01*
X94468216Y-110559577D01*
X94620943Y-110600500D01*
X94620945Y-110600500D01*
X94779055Y-110600500D01*
X94779057Y-110600500D01*
X94931784Y-110559577D01*
X95068716Y-110480520D01*
X95180520Y-110368716D01*
X95259577Y-110231784D01*
X95300500Y-110079057D01*
X95300500Y-109920943D01*
X95259577Y-109768216D01*
X95259573Y-109768209D01*
X95180524Y-109631290D01*
X95180518Y-109631282D01*
X95068717Y-109519481D01*
X95068709Y-109519475D01*
X94931790Y-109440426D01*
X94931786Y-109440424D01*
X94931784Y-109440423D01*
X94779057Y-109399500D01*
X94620943Y-109399500D01*
X94468216Y-109440423D01*
X94468209Y-109440426D01*
X94331290Y-109519475D01*
X94331282Y-109519481D01*
X94219481Y-109631282D01*
X94219475Y-109631290D01*
X94140426Y-109768209D01*
X94140423Y-109768216D01*
X94099500Y-109920943D01*
X56500500Y-109920943D01*
X56500500Y-108520943D01*
X61799500Y-108520943D01*
X61799500Y-108679057D01*
X61821384Y-108760727D01*
X61840423Y-108831783D01*
X61840426Y-108831790D01*
X61919475Y-108968709D01*
X61919479Y-108968714D01*
X61919480Y-108968716D01*
X62031284Y-109080520D01*
X62031286Y-109080521D01*
X62031290Y-109080524D01*
X62168209Y-109159573D01*
X62168216Y-109159577D01*
X62320943Y-109200500D01*
X62320945Y-109200500D01*
X62479055Y-109200500D01*
X62479057Y-109200500D01*
X62631784Y-109159577D01*
X62768716Y-109080520D01*
X62880520Y-108968716D01*
X62923192Y-108894804D01*
X62973757Y-108846591D01*
X63042363Y-108833367D01*
X63107228Y-108859334D01*
X63118259Y-108869125D01*
X63119269Y-108870135D01*
X63119273Y-108870138D01*
X63247919Y-108956097D01*
X63247925Y-108956100D01*
X63247926Y-108956101D01*
X63390878Y-109015314D01*
X63542630Y-109045499D01*
X63542634Y-109045500D01*
X63542635Y-109045500D01*
X63697366Y-109045500D01*
X63697367Y-109045499D01*
X63849122Y-109015314D01*
X63992074Y-108956101D01*
X64120727Y-108870138D01*
X64230138Y-108760727D01*
X64316101Y-108632074D01*
X64375314Y-108489122D01*
X64405500Y-108337365D01*
X64405500Y-108182635D01*
X64405499Y-108182630D01*
X71594500Y-108182630D01*
X71594500Y-108337369D01*
X71624684Y-108489114D01*
X71624686Y-108489122D01*
X71683897Y-108632071D01*
X71683902Y-108632080D01*
X71769861Y-108760726D01*
X71769864Y-108760730D01*
X71879269Y-108870135D01*
X71879273Y-108870138D01*
X72007919Y-108956097D01*
X72007925Y-108956100D01*
X72007926Y-108956101D01*
X72150878Y-109015314D01*
X72302630Y-109045499D01*
X72302634Y-109045500D01*
X72302635Y-109045500D01*
X72457366Y-109045500D01*
X72457367Y-109045499D01*
X72609122Y-109015314D01*
X72752074Y-108956101D01*
X72880727Y-108870138D01*
X72990138Y-108760727D01*
X73076101Y-108632074D01*
X73117992Y-108530940D01*
X73161831Y-108476538D01*
X73228125Y-108454473D01*
X73264646Y-108458619D01*
X73268211Y-108459574D01*
X73268216Y-108459577D01*
X73420943Y-108500500D01*
X73420946Y-108500500D01*
X73579055Y-108500500D01*
X73579057Y-108500500D01*
X73731784Y-108459577D01*
X73868716Y-108380520D01*
X73980520Y-108268716D01*
X74059577Y-108131784D01*
X74100500Y-107979057D01*
X74100500Y-107820943D01*
X74059577Y-107668216D01*
X74048982Y-107649864D01*
X73980524Y-107531290D01*
X73980518Y-107531282D01*
X73868717Y-107419481D01*
X73868709Y-107419475D01*
X73731790Y-107340426D01*
X73731786Y-107340424D01*
X73731784Y-107340423D01*
X73579057Y-107299500D01*
X73420943Y-107299500D01*
X73268216Y-107340423D01*
X73268209Y-107340426D01*
X73131290Y-107419475D01*
X73131282Y-107419481D01*
X73019481Y-107531282D01*
X73019475Y-107531290D01*
X72997646Y-107569099D01*
X72947079Y-107617314D01*
X72878472Y-107630536D01*
X72821369Y-107610200D01*
X72752080Y-107563902D01*
X72752071Y-107563897D01*
X72609122Y-107504686D01*
X72609114Y-107504684D01*
X72457369Y-107474500D01*
X72457365Y-107474500D01*
X72302635Y-107474500D01*
X72302630Y-107474500D01*
X72150885Y-107504684D01*
X72150877Y-107504686D01*
X72007928Y-107563897D01*
X72007919Y-107563902D01*
X71879273Y-107649861D01*
X71879269Y-107649864D01*
X71769864Y-107759269D01*
X71769861Y-107759273D01*
X71683902Y-107887919D01*
X71683897Y-107887928D01*
X71624686Y-108030877D01*
X71624684Y-108030885D01*
X71594500Y-108182630D01*
X64405499Y-108182630D01*
X64375314Y-108030878D01*
X64316101Y-107887926D01*
X64316100Y-107887925D01*
X64316097Y-107887919D01*
X64230138Y-107759273D01*
X64230135Y-107759269D01*
X64120730Y-107649864D01*
X64120726Y-107649861D01*
X63992080Y-107563902D01*
X63992071Y-107563897D01*
X63849122Y-107504686D01*
X63849114Y-107504684D01*
X63697369Y-107474500D01*
X63697365Y-107474500D01*
X63542635Y-107474500D01*
X63542630Y-107474500D01*
X63390885Y-107504684D01*
X63390877Y-107504686D01*
X63247928Y-107563897D01*
X63247919Y-107563902D01*
X63119273Y-107649861D01*
X63119269Y-107649864D01*
X63009864Y-107759269D01*
X63009861Y-107759273D01*
X62923902Y-107887919D01*
X62923897Y-107887929D01*
X62870656Y-108016464D01*
X62826815Y-108070867D01*
X62760520Y-108092932D01*
X62694095Y-108076398D01*
X62631786Y-108040424D01*
X62631785Y-108040423D01*
X62631784Y-108040423D01*
X62479057Y-107999500D01*
X62320943Y-107999500D01*
X62168216Y-108040423D01*
X62168209Y-108040426D01*
X62031290Y-108119475D01*
X62031282Y-108119481D01*
X61919481Y-108231282D01*
X61919475Y-108231290D01*
X61840426Y-108368209D01*
X61840423Y-108368216D01*
X61799500Y-108520943D01*
X56500500Y-108520943D01*
X56500500Y-105420943D01*
X57899500Y-105420943D01*
X57899500Y-105579057D01*
X57939693Y-105729057D01*
X57940423Y-105731783D01*
X57940426Y-105731790D01*
X58019475Y-105868709D01*
X58019479Y-105868714D01*
X58019480Y-105868716D01*
X58131284Y-105980520D01*
X58131286Y-105980521D01*
X58131290Y-105980524D01*
X58219221Y-106031290D01*
X58268216Y-106059577D01*
X58420943Y-106100500D01*
X58420945Y-106100500D01*
X58579055Y-106100500D01*
X58579057Y-106100500D01*
X58731784Y-106059577D01*
X58868716Y-105980520D01*
X58928293Y-105920943D01*
X59399500Y-105920943D01*
X59399500Y-106079057D01*
X59434473Y-106209576D01*
X59440423Y-106231783D01*
X59440426Y-106231790D01*
X59519475Y-106368709D01*
X59519479Y-106368714D01*
X59519480Y-106368716D01*
X59631284Y-106480520D01*
X59631286Y-106480521D01*
X59631290Y-106480524D01*
X59768209Y-106559573D01*
X59768216Y-106559577D01*
X59920943Y-106600500D01*
X59920945Y-106600500D01*
X60079055Y-106600500D01*
X60079057Y-106600500D01*
X60231784Y-106559577D01*
X60368716Y-106480520D01*
X60480520Y-106368716D01*
X60508102Y-106320943D01*
X65599500Y-106320943D01*
X65599500Y-106479057D01*
X65632041Y-106600500D01*
X65640423Y-106631783D01*
X65640426Y-106631790D01*
X65719475Y-106768709D01*
X65719479Y-106768714D01*
X65719480Y-106768716D01*
X65831284Y-106880520D01*
X65831286Y-106880521D01*
X65831290Y-106880524D01*
X65968209Y-106959573D01*
X65968216Y-106959577D01*
X66120943Y-107000500D01*
X66120945Y-107000500D01*
X66279055Y-107000500D01*
X66279057Y-107000500D01*
X66431784Y-106959577D01*
X66568716Y-106880520D01*
X66680520Y-106768716D01*
X66759577Y-106631784D01*
X66800500Y-106479057D01*
X66800500Y-106320943D01*
X66759577Y-106168216D01*
X66737816Y-106130524D01*
X66680524Y-106031290D01*
X66680518Y-106031282D01*
X66568717Y-105919481D01*
X66568709Y-105919475D01*
X66431790Y-105840426D01*
X66431786Y-105840424D01*
X66431784Y-105840423D01*
X66279057Y-105799500D01*
X66120943Y-105799500D01*
X65968216Y-105840423D01*
X65968209Y-105840426D01*
X65831290Y-105919475D01*
X65831282Y-105919481D01*
X65719481Y-106031282D01*
X65719475Y-106031290D01*
X65640426Y-106168209D01*
X65640423Y-106168216D01*
X65599500Y-106320943D01*
X60508102Y-106320943D01*
X60559577Y-106231784D01*
X60600500Y-106079057D01*
X60600500Y-105920943D01*
X60559577Y-105768216D01*
X60536968Y-105729055D01*
X60480524Y-105631290D01*
X60480518Y-105631282D01*
X60368717Y-105519481D01*
X60368709Y-105519475D01*
X60231790Y-105440426D01*
X60231786Y-105440424D01*
X60231784Y-105440423D01*
X60079057Y-105399500D01*
X59920943Y-105399500D01*
X59768216Y-105440423D01*
X59768209Y-105440426D01*
X59631290Y-105519475D01*
X59631282Y-105519481D01*
X59519481Y-105631282D01*
X59519475Y-105631290D01*
X59440426Y-105768209D01*
X59440423Y-105768216D01*
X59399500Y-105920943D01*
X58928293Y-105920943D01*
X58980520Y-105868716D01*
X58984352Y-105862078D01*
X58990855Y-105850816D01*
X59014519Y-105809826D01*
X59059577Y-105731784D01*
X59100500Y-105579057D01*
X59100500Y-105420943D01*
X59073705Y-105320943D01*
X61299500Y-105320943D01*
X61299500Y-105479057D01*
X61340289Y-105631282D01*
X61340423Y-105631783D01*
X61340426Y-105631790D01*
X61419475Y-105768709D01*
X61419479Y-105768714D01*
X61419480Y-105768716D01*
X61531284Y-105880520D01*
X61531286Y-105880521D01*
X61531290Y-105880524D01*
X61668209Y-105959573D01*
X61668216Y-105959577D01*
X61820943Y-106000500D01*
X61820945Y-106000500D01*
X61979055Y-106000500D01*
X61979057Y-106000500D01*
X62131784Y-105959577D01*
X62268716Y-105880520D01*
X62380520Y-105768716D01*
X62459577Y-105631784D01*
X62500500Y-105479057D01*
X62500500Y-105320943D01*
X62459577Y-105168216D01*
X62438258Y-105131290D01*
X62380524Y-105031289D01*
X62380518Y-105031282D01*
X62320179Y-104970943D01*
X69399500Y-104970943D01*
X69399500Y-105129057D01*
X69440289Y-105281282D01*
X69440423Y-105281783D01*
X69440426Y-105281790D01*
X69519475Y-105418709D01*
X69519479Y-105418714D01*
X69519480Y-105418716D01*
X69631284Y-105530520D01*
X69631286Y-105530521D01*
X69631290Y-105530524D01*
X69715353Y-105579057D01*
X69768216Y-105609577D01*
X69920943Y-105650500D01*
X69920945Y-105650500D01*
X70079055Y-105650500D01*
X70079057Y-105650500D01*
X70231784Y-105609577D01*
X70298701Y-105570943D01*
X89149500Y-105570943D01*
X89149500Y-105729057D01*
X89190086Y-105880524D01*
X89190423Y-105881783D01*
X89190426Y-105881790D01*
X89269475Y-106018709D01*
X89269479Y-106018714D01*
X89269480Y-106018716D01*
X89381284Y-106130520D01*
X89381286Y-106130521D01*
X89381290Y-106130524D01*
X89518209Y-106209573D01*
X89518216Y-106209577D01*
X89670943Y-106250500D01*
X89670945Y-106250500D01*
X89829055Y-106250500D01*
X89829057Y-106250500D01*
X89981784Y-106209577D01*
X90118716Y-106130520D01*
X90230520Y-106018716D01*
X90309577Y-105881784D01*
X90350500Y-105729057D01*
X90350500Y-105570943D01*
X90309577Y-105418216D01*
X90309573Y-105418209D01*
X90230524Y-105281290D01*
X90230518Y-105281282D01*
X90118717Y-105169481D01*
X90118709Y-105169475D01*
X89981790Y-105090426D01*
X89981786Y-105090424D01*
X89981784Y-105090423D01*
X89829057Y-105049500D01*
X89670943Y-105049500D01*
X89518216Y-105090423D01*
X89518209Y-105090426D01*
X89381290Y-105169475D01*
X89381282Y-105169481D01*
X89269481Y-105281282D01*
X89269475Y-105281290D01*
X89190426Y-105418209D01*
X89190423Y-105418216D01*
X89149500Y-105570943D01*
X70298701Y-105570943D01*
X70368716Y-105530520D01*
X70480520Y-105418716D01*
X70559577Y-105281784D01*
X70600500Y-105129057D01*
X70600500Y-104970943D01*
X70559577Y-104818216D01*
X70559573Y-104818209D01*
X70480524Y-104681290D01*
X70480518Y-104681282D01*
X70368717Y-104569481D01*
X70368716Y-104569480D01*
X70231784Y-104490423D01*
X70079057Y-104449500D01*
X69920943Y-104449500D01*
X69768216Y-104490423D01*
X69768209Y-104490426D01*
X69631290Y-104569475D01*
X69631282Y-104569481D01*
X69519481Y-104681282D01*
X69519475Y-104681290D01*
X69440426Y-104818209D01*
X69440423Y-104818216D01*
X69399500Y-104970943D01*
X62320179Y-104970943D01*
X62268717Y-104919481D01*
X62268709Y-104919475D01*
X62131790Y-104840426D01*
X62131786Y-104840424D01*
X62131784Y-104840423D01*
X61979057Y-104799500D01*
X61820943Y-104799500D01*
X61668216Y-104840423D01*
X61668209Y-104840426D01*
X61531290Y-104919475D01*
X61531282Y-104919481D01*
X61419481Y-105031282D01*
X61419475Y-105031290D01*
X61340426Y-105168209D01*
X61340423Y-105168216D01*
X61299500Y-105320943D01*
X59073705Y-105320943D01*
X59059577Y-105268216D01*
X59002573Y-105169481D01*
X58980524Y-105131290D01*
X58980518Y-105131282D01*
X58868717Y-105019481D01*
X58868709Y-105019475D01*
X58731790Y-104940426D01*
X58731786Y-104940424D01*
X58731784Y-104940423D01*
X58579057Y-104899500D01*
X58420943Y-104899500D01*
X58268216Y-104940423D01*
X58268209Y-104940426D01*
X58131290Y-105019475D01*
X58131282Y-105019481D01*
X58019481Y-105131282D01*
X58019475Y-105131290D01*
X57940426Y-105268209D01*
X57940423Y-105268216D01*
X57899500Y-105420943D01*
X56500500Y-105420943D01*
X56500500Y-104420943D01*
X87099500Y-104420943D01*
X87099500Y-104579057D01*
X87136922Y-104718716D01*
X87140423Y-104731783D01*
X87140426Y-104731790D01*
X87219475Y-104868709D01*
X87219479Y-104868714D01*
X87219480Y-104868716D01*
X87331284Y-104980520D01*
X87331286Y-104980521D01*
X87331290Y-104980524D01*
X87419219Y-105031289D01*
X87468216Y-105059577D01*
X87620943Y-105100500D01*
X87620945Y-105100500D01*
X87779055Y-105100500D01*
X87779057Y-105100500D01*
X87931784Y-105059577D01*
X88068716Y-104980520D01*
X88128293Y-104920943D01*
X91899500Y-104920943D01*
X91899500Y-105079057D01*
X91923728Y-105169475D01*
X91940423Y-105231783D01*
X91940426Y-105231790D01*
X92019475Y-105368709D01*
X92019479Y-105368714D01*
X92019480Y-105368716D01*
X92131284Y-105480520D01*
X92131286Y-105480521D01*
X92131290Y-105480524D01*
X92217887Y-105530520D01*
X92268216Y-105559577D01*
X92420943Y-105600500D01*
X92420945Y-105600500D01*
X92579055Y-105600500D01*
X92579057Y-105600500D01*
X92731784Y-105559577D01*
X92868716Y-105480520D01*
X92889901Y-105459334D01*
X92951220Y-105425851D01*
X93020911Y-105430834D01*
X93076846Y-105472705D01*
X93101264Y-105538169D01*
X93100519Y-105563202D01*
X93099500Y-105570941D01*
X93099500Y-105570943D01*
X93099500Y-105729057D01*
X93140086Y-105880524D01*
X93140423Y-105881783D01*
X93140426Y-105881790D01*
X93219475Y-106018709D01*
X93219479Y-106018714D01*
X93219480Y-106018716D01*
X93331284Y-106130520D01*
X93331286Y-106130521D01*
X93331290Y-106130524D01*
X93468209Y-106209573D01*
X93468216Y-106209577D01*
X93620943Y-106250500D01*
X93620945Y-106250500D01*
X93779055Y-106250500D01*
X93779057Y-106250500D01*
X93931784Y-106209577D01*
X94068716Y-106130520D01*
X94180520Y-106018716D01*
X94259577Y-105881784D01*
X94300500Y-105729057D01*
X94300500Y-105570943D01*
X94259577Y-105418216D01*
X94259573Y-105418209D01*
X94180524Y-105281290D01*
X94180518Y-105281282D01*
X94068717Y-105169481D01*
X94068709Y-105169475D01*
X93931790Y-105090426D01*
X93931785Y-105090423D01*
X93802099Y-105055674D01*
X93742439Y-105019309D01*
X93711910Y-104956461D01*
X93720205Y-104887086D01*
X93762533Y-104835819D01*
X93762265Y-104835470D01*
X93763786Y-104834302D01*
X93764690Y-104833208D01*
X93767522Y-104831435D01*
X93768709Y-104830523D01*
X93768716Y-104830520D01*
X93880520Y-104718716D01*
X93959577Y-104581784D01*
X94000500Y-104429057D01*
X94000500Y-104320943D01*
X105999500Y-104320943D01*
X105999500Y-104479057D01*
X106040289Y-104631282D01*
X106040423Y-104631783D01*
X106040426Y-104631790D01*
X106119475Y-104768709D01*
X106119479Y-104768714D01*
X106119480Y-104768716D01*
X106231284Y-104880520D01*
X106231286Y-104880521D01*
X106231290Y-104880524D01*
X106298765Y-104919480D01*
X106368216Y-104959577D01*
X106520943Y-105000500D01*
X106520945Y-105000500D01*
X106679055Y-105000500D01*
X106679057Y-105000500D01*
X106831784Y-104959577D01*
X106968716Y-104880520D01*
X107080520Y-104768716D01*
X107092612Y-104747772D01*
X107143178Y-104699555D01*
X107211785Y-104686331D01*
X107276650Y-104712298D01*
X107307388Y-104747772D01*
X107319477Y-104768712D01*
X107319479Y-104768715D01*
X107319480Y-104768716D01*
X107431284Y-104880520D01*
X107431286Y-104880521D01*
X107431290Y-104880524D01*
X107498765Y-104919480D01*
X107568216Y-104959577D01*
X107720943Y-105000500D01*
X107720945Y-105000500D01*
X107879055Y-105000500D01*
X107879057Y-105000500D01*
X108031784Y-104959577D01*
X108168716Y-104880520D01*
X108280520Y-104768716D01*
X108359577Y-104631784D01*
X108400500Y-104479057D01*
X108400500Y-104320943D01*
X108359577Y-104168216D01*
X108338258Y-104131290D01*
X108280524Y-104031290D01*
X108280518Y-104031282D01*
X108168717Y-103919481D01*
X108168709Y-103919475D01*
X108031790Y-103840426D01*
X108031786Y-103840424D01*
X108031784Y-103840423D01*
X107879057Y-103799500D01*
X107720943Y-103799500D01*
X107568216Y-103840423D01*
X107568209Y-103840426D01*
X107431290Y-103919475D01*
X107431282Y-103919481D01*
X107319481Y-104031282D01*
X107319477Y-104031287D01*
X107307387Y-104052229D01*
X107256820Y-104100445D01*
X107188213Y-104113668D01*
X107123348Y-104087700D01*
X107092613Y-104052229D01*
X107080522Y-104031287D01*
X107080518Y-104031282D01*
X106968717Y-103919481D01*
X106968709Y-103919475D01*
X106831790Y-103840426D01*
X106831786Y-103840424D01*
X106831784Y-103840423D01*
X106679057Y-103799500D01*
X106520943Y-103799500D01*
X106368216Y-103840423D01*
X106368209Y-103840426D01*
X106231290Y-103919475D01*
X106231282Y-103919481D01*
X106119481Y-104031282D01*
X106119475Y-104031290D01*
X106040426Y-104168209D01*
X106040423Y-104168216D01*
X105999500Y-104320943D01*
X94000500Y-104320943D01*
X94000500Y-104270943D01*
X93959577Y-104118216D01*
X93937816Y-104080524D01*
X93880524Y-103981290D01*
X93880518Y-103981282D01*
X93768717Y-103869481D01*
X93768709Y-103869475D01*
X93631790Y-103790426D01*
X93631786Y-103790424D01*
X93631784Y-103790423D01*
X93479057Y-103749500D01*
X93320943Y-103749500D01*
X93168216Y-103790423D01*
X93168209Y-103790426D01*
X93031290Y-103869475D01*
X93031282Y-103869481D01*
X92919481Y-103981282D01*
X92919475Y-103981290D01*
X92840426Y-104118209D01*
X92840423Y-104118216D01*
X92799500Y-104270943D01*
X92799500Y-104296967D01*
X92779815Y-104364006D01*
X92727011Y-104409761D01*
X92657853Y-104419705D01*
X92643408Y-104416742D01*
X92579058Y-104399500D01*
X92579057Y-104399500D01*
X92420943Y-104399500D01*
X92268216Y-104440423D01*
X92268209Y-104440426D01*
X92131290Y-104519475D01*
X92131282Y-104519481D01*
X92019481Y-104631282D01*
X92019475Y-104631290D01*
X91940426Y-104768209D01*
X91940423Y-104768216D01*
X91899500Y-104920943D01*
X88128293Y-104920943D01*
X88180520Y-104868716D01*
X88184833Y-104861246D01*
X88190855Y-104850816D01*
X88214519Y-104809826D01*
X88259577Y-104731784D01*
X88300500Y-104579057D01*
X88300500Y-104420943D01*
X88259577Y-104268216D01*
X88201843Y-104168216D01*
X88180524Y-104131290D01*
X88180518Y-104131282D01*
X88068717Y-104019481D01*
X88068709Y-104019475D01*
X87931790Y-103940426D01*
X87931786Y-103940424D01*
X87931784Y-103940423D01*
X87779057Y-103899500D01*
X87620943Y-103899500D01*
X87468216Y-103940423D01*
X87468209Y-103940426D01*
X87331290Y-104019475D01*
X87331282Y-104019481D01*
X87219481Y-104131282D01*
X87219475Y-104131290D01*
X87140426Y-104268209D01*
X87140423Y-104268216D01*
X87099500Y-104420943D01*
X56500500Y-104420943D01*
X56500500Y-101820943D01*
X86599500Y-101820943D01*
X86599500Y-101979057D01*
X86610724Y-102020943D01*
X86640423Y-102131783D01*
X86640426Y-102131790D01*
X86719475Y-102268709D01*
X86719479Y-102268714D01*
X86719480Y-102268716D01*
X86831284Y-102380520D01*
X86831286Y-102380521D01*
X86831290Y-102380524D01*
X86968209Y-102459573D01*
X86968216Y-102459577D01*
X87120943Y-102500500D01*
X87120945Y-102500500D01*
X87279055Y-102500500D01*
X87279057Y-102500500D01*
X87431784Y-102459577D01*
X87568716Y-102380520D01*
X87578293Y-102370943D01*
X87999500Y-102370943D01*
X87999500Y-102529057D01*
X88034473Y-102659576D01*
X88040423Y-102681783D01*
X88040426Y-102681790D01*
X88119475Y-102818709D01*
X88119479Y-102818714D01*
X88119480Y-102818716D01*
X88231284Y-102930520D01*
X88231286Y-102930521D01*
X88231290Y-102930524D01*
X88350762Y-102999500D01*
X88368216Y-103009577D01*
X88520943Y-103050500D01*
X88520945Y-103050500D01*
X88679055Y-103050500D01*
X88679057Y-103050500D01*
X88789365Y-103020943D01*
X93699500Y-103020943D01*
X93699500Y-103179057D01*
X93705317Y-103200764D01*
X93740423Y-103331783D01*
X93740426Y-103331790D01*
X93819475Y-103468709D01*
X93819479Y-103468714D01*
X93819480Y-103468716D01*
X93931284Y-103580520D01*
X93931286Y-103580521D01*
X93931290Y-103580524D01*
X94068209Y-103659573D01*
X94068216Y-103659577D01*
X94220943Y-103700500D01*
X94220945Y-103700500D01*
X94379055Y-103700500D01*
X94379057Y-103700500D01*
X94531784Y-103659577D01*
X94668716Y-103580520D01*
X94728293Y-103520943D01*
X108899500Y-103520943D01*
X108899500Y-103679057D01*
X108929341Y-103790423D01*
X108940423Y-103831783D01*
X108940426Y-103831790D01*
X109019475Y-103968709D01*
X109019479Y-103968714D01*
X109019480Y-103968716D01*
X109131284Y-104080520D01*
X109131286Y-104080521D01*
X109131290Y-104080524D01*
X109219221Y-104131290D01*
X109268216Y-104159577D01*
X109420943Y-104200500D01*
X109420945Y-104200500D01*
X109579055Y-104200500D01*
X109579057Y-104200500D01*
X109731784Y-104159577D01*
X109803436Y-104118209D01*
X109868707Y-104080526D01*
X109868711Y-104080522D01*
X109868716Y-104080520D01*
X109868719Y-104080516D01*
X109874507Y-104076075D01*
X109939674Y-104050877D01*
X110008120Y-104064910D01*
X110025493Y-104076075D01*
X110031292Y-104080526D01*
X110168209Y-104159573D01*
X110168216Y-104159577D01*
X110320943Y-104200500D01*
X110320945Y-104200500D01*
X110479055Y-104200500D01*
X110479057Y-104200500D01*
X110631784Y-104159577D01*
X110768716Y-104080520D01*
X110880520Y-103968716D01*
X110959577Y-103831784D01*
X111000500Y-103679057D01*
X111000500Y-103520943D01*
X110959577Y-103368216D01*
X110938543Y-103331783D01*
X110880524Y-103231290D01*
X110880518Y-103231282D01*
X110768717Y-103119481D01*
X110768709Y-103119475D01*
X110631790Y-103040426D01*
X110631786Y-103040424D01*
X110631784Y-103040423D01*
X110479057Y-102999500D01*
X110320943Y-102999500D01*
X110168216Y-103040423D01*
X110168209Y-103040426D01*
X110031291Y-103119475D01*
X110025488Y-103123928D01*
X109960319Y-103149123D01*
X109891874Y-103135086D01*
X109874512Y-103123928D01*
X109868720Y-103119484D01*
X109868716Y-103119480D01*
X109868710Y-103119476D01*
X109868708Y-103119475D01*
X109731790Y-103040426D01*
X109731786Y-103040424D01*
X109731784Y-103040423D01*
X109579057Y-102999500D01*
X109420943Y-102999500D01*
X109268216Y-103040423D01*
X109268209Y-103040426D01*
X109131290Y-103119475D01*
X109131282Y-103119481D01*
X109019481Y-103231282D01*
X109019475Y-103231290D01*
X108940426Y-103368209D01*
X108940423Y-103368216D01*
X108899500Y-103520943D01*
X94728293Y-103520943D01*
X94780520Y-103468716D01*
X94784352Y-103462078D01*
X94790855Y-103450816D01*
X94838547Y-103368209D01*
X94859577Y-103331784D01*
X94900500Y-103179057D01*
X94900500Y-103020943D01*
X94859577Y-102868216D01*
X94830999Y-102818717D01*
X94780524Y-102731290D01*
X94780518Y-102731282D01*
X94668717Y-102619481D01*
X94668709Y-102619475D01*
X94531790Y-102540426D01*
X94531786Y-102540424D01*
X94531784Y-102540423D01*
X94379057Y-102499500D01*
X94220943Y-102499500D01*
X94068216Y-102540423D01*
X94068209Y-102540426D01*
X93931290Y-102619475D01*
X93931282Y-102619481D01*
X93819481Y-102731282D01*
X93819475Y-102731290D01*
X93740426Y-102868209D01*
X93740423Y-102868216D01*
X93699500Y-103020943D01*
X88789365Y-103020943D01*
X88831784Y-103009577D01*
X88968716Y-102930520D01*
X89080520Y-102818716D01*
X89159577Y-102681784D01*
X89200500Y-102529057D01*
X89200500Y-102370943D01*
X89159577Y-102218216D01*
X89136969Y-102179057D01*
X89080524Y-102081289D01*
X89080518Y-102081282D01*
X89020179Y-102020943D01*
X112499500Y-102020943D01*
X112499500Y-102179057D01*
X112523525Y-102268717D01*
X112540423Y-102331783D01*
X112540426Y-102331790D01*
X112619475Y-102468709D01*
X112619479Y-102468714D01*
X112619480Y-102468716D01*
X112731284Y-102580520D01*
X112731286Y-102580521D01*
X112731290Y-102580524D01*
X112798765Y-102619480D01*
X112868216Y-102659577D01*
X113020943Y-102700500D01*
X113020945Y-102700500D01*
X113179055Y-102700500D01*
X113179057Y-102700500D01*
X113331784Y-102659577D01*
X113468716Y-102580520D01*
X113580520Y-102468716D01*
X113659577Y-102331784D01*
X113700500Y-102179057D01*
X113700500Y-102020943D01*
X113659577Y-101868216D01*
X113659573Y-101868209D01*
X113580524Y-101731290D01*
X113580518Y-101731282D01*
X113468717Y-101619481D01*
X113468709Y-101619475D01*
X113331790Y-101540426D01*
X113331786Y-101540424D01*
X113331784Y-101540423D01*
X113179057Y-101499500D01*
X113020943Y-101499500D01*
X112868216Y-101540423D01*
X112868209Y-101540426D01*
X112731290Y-101619475D01*
X112731282Y-101619481D01*
X112619481Y-101731282D01*
X112619475Y-101731290D01*
X112540426Y-101868209D01*
X112540423Y-101868216D01*
X112499500Y-102020943D01*
X89020179Y-102020943D01*
X88968717Y-101969481D01*
X88968709Y-101969475D01*
X88831790Y-101890426D01*
X88831786Y-101890424D01*
X88831784Y-101890423D01*
X88679057Y-101849500D01*
X88520943Y-101849500D01*
X88368216Y-101890423D01*
X88368209Y-101890426D01*
X88231290Y-101969475D01*
X88231282Y-101969481D01*
X88119481Y-102081282D01*
X88119475Y-102081290D01*
X88040426Y-102218209D01*
X88040423Y-102218216D01*
X87999500Y-102370943D01*
X87578293Y-102370943D01*
X87680520Y-102268716D01*
X87759577Y-102131784D01*
X87800500Y-101979057D01*
X87800500Y-101820943D01*
X87759577Y-101668216D01*
X87731437Y-101619475D01*
X87680524Y-101531290D01*
X87680518Y-101531282D01*
X87568717Y-101419481D01*
X87568709Y-101419475D01*
X87431790Y-101340426D01*
X87431786Y-101340424D01*
X87431784Y-101340423D01*
X87279057Y-101299500D01*
X87120943Y-101299500D01*
X86968216Y-101340423D01*
X86968209Y-101340426D01*
X86831290Y-101419475D01*
X86831282Y-101419481D01*
X86719481Y-101531282D01*
X86719475Y-101531290D01*
X86640426Y-101668209D01*
X86640423Y-101668216D01*
X86599500Y-101820943D01*
X56500500Y-101820943D01*
X56500500Y-100420943D01*
X91899500Y-100420943D01*
X91899500Y-100579057D01*
X91924700Y-100673102D01*
X91940423Y-100731783D01*
X91940426Y-100731790D01*
X92019475Y-100868709D01*
X92019479Y-100868714D01*
X92019480Y-100868716D01*
X92131284Y-100980520D01*
X92131286Y-100980521D01*
X92131290Y-100980524D01*
X92247540Y-101047640D01*
X92268216Y-101059577D01*
X92420943Y-101100500D01*
X92420945Y-101100500D01*
X92579055Y-101100500D01*
X92579057Y-101100500D01*
X92731784Y-101059577D01*
X92844820Y-100994315D01*
X92868711Y-100980523D01*
X92868714Y-100980521D01*
X92868713Y-100980521D01*
X92868716Y-100980520D01*
X92888715Y-100960520D01*
X92950037Y-100927035D01*
X93019728Y-100932018D01*
X93038394Y-100940812D01*
X93088216Y-100969577D01*
X93240943Y-101010500D01*
X93240945Y-101010500D01*
X93399055Y-101010500D01*
X93399057Y-101010500D01*
X93551784Y-100969577D01*
X93643329Y-100916723D01*
X93711228Y-100900251D01*
X93777255Y-100923104D01*
X93793009Y-100936430D01*
X93825163Y-100968584D01*
X93825165Y-100968585D01*
X93825169Y-100968588D01*
X93934640Y-101031790D01*
X93962095Y-101047641D01*
X94114822Y-101088564D01*
X94114824Y-101088564D01*
X94272934Y-101088564D01*
X94272936Y-101088564D01*
X94425663Y-101047641D01*
X94490838Y-101010012D01*
X94558736Y-100993540D01*
X94615714Y-101013260D01*
X94616744Y-101011478D01*
X94700056Y-101059577D01*
X94760715Y-101094598D01*
X94913442Y-101135521D01*
X94913444Y-101135521D01*
X95071554Y-101135521D01*
X95071556Y-101135521D01*
X95224283Y-101094598D01*
X95361215Y-101015541D01*
X95473019Y-100903737D01*
X95552076Y-100766805D01*
X95592999Y-100614078D01*
X95592999Y-100455964D01*
X95583615Y-100420943D01*
X95899500Y-100420943D01*
X95899500Y-100579057D01*
X95924700Y-100673102D01*
X95940423Y-100731783D01*
X95940426Y-100731790D01*
X96019475Y-100868709D01*
X96019479Y-100868714D01*
X96019480Y-100868716D01*
X96131284Y-100980520D01*
X96131286Y-100980521D01*
X96131290Y-100980524D01*
X96247540Y-101047640D01*
X96268216Y-101059577D01*
X96420943Y-101100500D01*
X96420945Y-101100500D01*
X96579055Y-101100500D01*
X96579057Y-101100500D01*
X96731784Y-101059577D01*
X96868716Y-100980520D01*
X96980520Y-100868716D01*
X97059577Y-100731784D01*
X97100500Y-100579057D01*
X97100500Y-100564018D01*
X97120185Y-100496979D01*
X97172989Y-100451224D01*
X97192402Y-100444244D01*
X97321784Y-100409577D01*
X97458716Y-100330520D01*
X97570520Y-100218716D01*
X97649577Y-100081784D01*
X97690500Y-99929057D01*
X97690500Y-99820943D01*
X106399500Y-99820943D01*
X106399500Y-99979057D01*
X106440289Y-100131282D01*
X106440423Y-100131783D01*
X106440426Y-100131790D01*
X106519475Y-100268708D01*
X106519480Y-100268716D01*
X106519484Y-100268720D01*
X106523928Y-100274512D01*
X106549123Y-100339681D01*
X106535086Y-100408126D01*
X106523928Y-100425488D01*
X106519475Y-100431291D01*
X106440426Y-100568209D01*
X106440423Y-100568216D01*
X106399500Y-100720943D01*
X106399500Y-100879057D01*
X106434590Y-101010013D01*
X106440423Y-101031783D01*
X106440426Y-101031790D01*
X106519475Y-101168709D01*
X106519479Y-101168714D01*
X106519480Y-101168716D01*
X106631284Y-101280520D01*
X106631286Y-101280521D01*
X106631290Y-101280524D01*
X106735040Y-101340423D01*
X106768216Y-101359577D01*
X106920943Y-101400500D01*
X106920945Y-101400500D01*
X107079055Y-101400500D01*
X107079057Y-101400500D01*
X107231784Y-101359577D01*
X107368716Y-101280520D01*
X107480520Y-101168716D01*
X107559577Y-101031784D01*
X107600500Y-100879057D01*
X107600500Y-100720943D01*
X107559577Y-100568216D01*
X107557153Y-100564018D01*
X107480526Y-100431292D01*
X107476075Y-100425493D01*
X107450877Y-100360326D01*
X107464910Y-100291880D01*
X107476075Y-100274507D01*
X107480516Y-100268719D01*
X107480520Y-100268716D01*
X107480525Y-100268708D01*
X107480526Y-100268707D01*
X107538254Y-100168716D01*
X107559577Y-100131784D01*
X107600500Y-99979057D01*
X107600500Y-99863992D01*
X109994500Y-99863992D01*
X109994500Y-100066007D01*
X110033907Y-100264119D01*
X110033909Y-100264127D01*
X110111212Y-100450752D01*
X110111217Y-100450762D01*
X110223441Y-100618718D01*
X110366281Y-100761558D01*
X110534237Y-100873782D01*
X110534241Y-100873784D01*
X110534244Y-100873786D01*
X110720873Y-100951091D01*
X110868814Y-100980518D01*
X110918992Y-100990499D01*
X110918996Y-100990500D01*
X110918997Y-100990500D01*
X111671004Y-100990500D01*
X111671005Y-100990499D01*
X111869127Y-100951091D01*
X112055756Y-100873786D01*
X112223718Y-100761558D01*
X112366558Y-100618718D01*
X112478786Y-100450756D01*
X112556091Y-100264127D01*
X112595500Y-100066003D01*
X112595500Y-99863997D01*
X112595500Y-99863993D01*
X112595499Y-99863992D01*
X112580518Y-99788676D01*
X112556091Y-99665873D01*
X112513354Y-99562697D01*
X112505885Y-99493227D01*
X112537160Y-99430748D01*
X112580457Y-99400685D01*
X112676811Y-99360775D01*
X112791542Y-99284114D01*
X112889114Y-99186542D01*
X112965775Y-99071811D01*
X112972236Y-99056214D01*
X113013198Y-98957321D01*
X113018580Y-98944328D01*
X113032975Y-98871959D01*
X113045500Y-98808995D01*
X113045500Y-98671004D01*
X113018581Y-98535677D01*
X113018580Y-98535676D01*
X113018580Y-98535672D01*
X112995737Y-98480524D01*
X112965778Y-98408195D01*
X112965771Y-98408182D01*
X112889114Y-98293458D01*
X112889111Y-98293454D01*
X112791545Y-98195888D01*
X112791541Y-98195885D01*
X112676817Y-98119228D01*
X112676804Y-98119221D01*
X112549332Y-98066421D01*
X112549322Y-98066418D01*
X112413995Y-98039500D01*
X112413993Y-98039500D01*
X112276007Y-98039500D01*
X112276005Y-98039500D01*
X112140677Y-98066418D01*
X112140667Y-98066421D01*
X112013195Y-98119221D01*
X112013182Y-98119228D01*
X111898458Y-98195885D01*
X111898454Y-98195888D01*
X111800888Y-98293454D01*
X111800885Y-98293458D01*
X111724228Y-98408182D01*
X111724221Y-98408195D01*
X111671421Y-98535667D01*
X111671418Y-98535677D01*
X111644500Y-98671004D01*
X111644500Y-98815085D01*
X111641710Y-98815085D01*
X111630942Y-98871959D01*
X111582892Y-98922683D01*
X111520541Y-98939500D01*
X110918992Y-98939500D01*
X110720880Y-98978907D01*
X110720872Y-98978909D01*
X110534247Y-99056212D01*
X110534237Y-99056217D01*
X110366281Y-99168441D01*
X110223441Y-99311281D01*
X110111217Y-99479237D01*
X110111212Y-99479247D01*
X110033909Y-99665872D01*
X110033907Y-99665880D01*
X109994500Y-99863992D01*
X107600500Y-99863992D01*
X107600500Y-99820943D01*
X107559577Y-99668216D01*
X107558224Y-99665872D01*
X107480524Y-99531290D01*
X107480518Y-99531282D01*
X107368717Y-99419481D01*
X107368709Y-99419475D01*
X107231790Y-99340426D01*
X107231786Y-99340424D01*
X107231784Y-99340423D01*
X107079057Y-99299500D01*
X106920943Y-99299500D01*
X106768216Y-99340423D01*
X106768209Y-99340426D01*
X106631290Y-99419475D01*
X106631282Y-99419481D01*
X106519481Y-99531282D01*
X106519475Y-99531290D01*
X106440426Y-99668209D01*
X106440423Y-99668216D01*
X106399500Y-99820943D01*
X97690500Y-99820943D01*
X97690500Y-99770943D01*
X97649577Y-99618216D01*
X97620706Y-99568209D01*
X97570524Y-99481290D01*
X97570518Y-99481282D01*
X97458717Y-99369481D01*
X97458709Y-99369475D01*
X97321790Y-99290426D01*
X97321786Y-99290424D01*
X97321784Y-99290423D01*
X97169057Y-99249500D01*
X97010943Y-99249500D01*
X96858216Y-99290423D01*
X96858209Y-99290426D01*
X96721290Y-99369475D01*
X96721282Y-99369481D01*
X96609481Y-99481282D01*
X96609475Y-99481290D01*
X96530426Y-99618209D01*
X96530423Y-99618216D01*
X96489500Y-99770943D01*
X96489500Y-99785981D01*
X96469815Y-99853020D01*
X96417011Y-99898775D01*
X96397594Y-99905756D01*
X96268214Y-99940423D01*
X96268209Y-99940426D01*
X96131290Y-100019475D01*
X96131282Y-100019481D01*
X96019481Y-100131282D01*
X96019475Y-100131290D01*
X95940426Y-100268209D01*
X95940423Y-100268216D01*
X95899500Y-100420943D01*
X95583615Y-100420943D01*
X95552076Y-100303237D01*
X95538963Y-100280524D01*
X95473023Y-100166311D01*
X95473017Y-100166303D01*
X95361216Y-100054502D01*
X95361208Y-100054496D01*
X95224289Y-99975447D01*
X95224285Y-99975445D01*
X95224283Y-99975444D01*
X95071556Y-99934521D01*
X94913442Y-99934521D01*
X94760715Y-99975444D01*
X94760714Y-99975444D01*
X94695540Y-100013072D01*
X94627639Y-100029543D01*
X94570663Y-100009823D01*
X94569634Y-100011607D01*
X94425669Y-99928490D01*
X94425665Y-99928488D01*
X94425663Y-99928487D01*
X94272936Y-99887564D01*
X94114822Y-99887564D01*
X93962095Y-99928487D01*
X93962094Y-99928487D01*
X93870549Y-99981340D01*
X93802648Y-99997811D01*
X93736622Y-99974959D01*
X93720869Y-99961633D01*
X93688717Y-99929481D01*
X93688709Y-99929475D01*
X93551790Y-99850426D01*
X93551786Y-99850424D01*
X93551784Y-99850423D01*
X93399057Y-99809500D01*
X93240943Y-99809500D01*
X93088216Y-99850423D01*
X93088209Y-99850426D01*
X92951285Y-99929478D01*
X92931282Y-99949481D01*
X92869958Y-99982965D01*
X92800266Y-99977979D01*
X92781603Y-99969185D01*
X92731790Y-99940426D01*
X92731786Y-99940424D01*
X92731784Y-99940423D01*
X92579057Y-99899500D01*
X92420943Y-99899500D01*
X92268216Y-99940423D01*
X92268209Y-99940426D01*
X92131290Y-100019475D01*
X92131282Y-100019481D01*
X92019481Y-100131282D01*
X92019475Y-100131290D01*
X91940426Y-100268209D01*
X91940423Y-100268216D01*
X91899500Y-100420943D01*
X56500500Y-100420943D01*
X56500500Y-99720943D01*
X81999500Y-99720943D01*
X81999500Y-99879057D01*
X82039615Y-100028766D01*
X82040423Y-100031783D01*
X82040426Y-100031790D01*
X82119475Y-100168709D01*
X82119479Y-100168714D01*
X82119480Y-100168716D01*
X82231284Y-100280520D01*
X82231286Y-100280521D01*
X82231290Y-100280524D01*
X82317887Y-100330520D01*
X82368216Y-100359577D01*
X82520943Y-100400500D01*
X82520945Y-100400500D01*
X82679055Y-100400500D01*
X82679057Y-100400500D01*
X82831784Y-100359577D01*
X82968716Y-100280520D01*
X83080520Y-100168716D01*
X83159577Y-100031784D01*
X83200500Y-99879057D01*
X83200500Y-99720943D01*
X83176283Y-99630563D01*
X87709120Y-99630563D01*
X87709120Y-99788677D01*
X87746849Y-99929481D01*
X87750043Y-99941403D01*
X87750046Y-99941410D01*
X87829095Y-100078329D01*
X87829099Y-100078334D01*
X87829100Y-100078336D01*
X87940904Y-100190140D01*
X87940906Y-100190141D01*
X87940910Y-100190144D01*
X88069054Y-100264127D01*
X88077836Y-100269197D01*
X88230563Y-100310120D01*
X88230565Y-100310120D01*
X88388674Y-100310120D01*
X88388677Y-100310120D01*
X88541404Y-100269197D01*
X88678336Y-100190140D01*
X88790140Y-100078336D01*
X88869197Y-99941404D01*
X88910120Y-99788677D01*
X88910120Y-99630563D01*
X88869197Y-99477836D01*
X88844439Y-99434954D01*
X88790144Y-99340910D01*
X88790138Y-99340902D01*
X88678337Y-99229101D01*
X88678329Y-99229095D01*
X88541410Y-99150046D01*
X88541406Y-99150044D01*
X88541404Y-99150043D01*
X88388677Y-99109120D01*
X88230563Y-99109120D01*
X88077836Y-99150043D01*
X88077829Y-99150046D01*
X87940910Y-99229095D01*
X87940902Y-99229101D01*
X87829101Y-99340902D01*
X87829095Y-99340910D01*
X87750046Y-99477829D01*
X87750043Y-99477836D01*
X87709120Y-99630563D01*
X83176283Y-99630563D01*
X83159577Y-99568216D01*
X83138258Y-99531290D01*
X83080524Y-99431290D01*
X83080518Y-99431282D01*
X82968717Y-99319481D01*
X82968709Y-99319475D01*
X82831790Y-99240426D01*
X82831786Y-99240424D01*
X82831784Y-99240423D01*
X82679057Y-99199500D01*
X82520943Y-99199500D01*
X82368216Y-99240423D01*
X82368209Y-99240426D01*
X82231290Y-99319475D01*
X82231282Y-99319481D01*
X82119481Y-99431282D01*
X82119475Y-99431290D01*
X82040426Y-99568209D01*
X82040423Y-99568216D01*
X81999500Y-99720943D01*
X56500500Y-99720943D01*
X56500500Y-97880568D01*
X86849501Y-97880568D01*
X86849501Y-98038682D01*
X86887508Y-98180524D01*
X86890424Y-98191408D01*
X86890427Y-98191415D01*
X86969476Y-98328334D01*
X86969480Y-98328339D01*
X86969481Y-98328341D01*
X87081285Y-98440145D01*
X87081287Y-98440146D01*
X87081291Y-98440149D01*
X87151217Y-98480520D01*
X87218217Y-98519202D01*
X87370944Y-98560125D01*
X87370946Y-98560125D01*
X87529056Y-98560125D01*
X87529058Y-98560125D01*
X87681785Y-98519202D01*
X87818717Y-98440145D01*
X87930521Y-98328341D01*
X88009578Y-98191409D01*
X88050501Y-98038682D01*
X88050501Y-97880568D01*
X88009578Y-97727841D01*
X87947861Y-97620943D01*
X92049500Y-97620943D01*
X92049500Y-97779057D01*
X92076701Y-97880570D01*
X92090423Y-97931783D01*
X92090426Y-97931790D01*
X92169475Y-98068709D01*
X92169479Y-98068714D01*
X92169480Y-98068716D01*
X92281284Y-98180520D01*
X92281286Y-98180521D01*
X92281290Y-98180524D01*
X92418213Y-98259576D01*
X92425728Y-98262689D01*
X92424799Y-98264930D01*
X92473948Y-98294873D01*
X92504492Y-98357712D01*
X92506214Y-98378304D01*
X92506214Y-98435878D01*
X92532953Y-98535667D01*
X92547137Y-98588604D01*
X92547140Y-98588611D01*
X92626189Y-98725530D01*
X92626193Y-98725535D01*
X92626194Y-98725537D01*
X92737998Y-98837341D01*
X92738000Y-98837342D01*
X92738004Y-98837345D01*
X92874923Y-98916394D01*
X92874930Y-98916398D01*
X93027657Y-98957321D01*
X93027659Y-98957321D01*
X93185769Y-98957321D01*
X93185771Y-98957321D01*
X93338498Y-98916398D01*
X93475430Y-98837341D01*
X93587234Y-98725537D01*
X93666291Y-98588605D01*
X93707214Y-98435878D01*
X93707214Y-98277764D01*
X93666291Y-98125037D01*
X93662937Y-98119228D01*
X93587237Y-97988109D01*
X93587234Y-97988105D01*
X93520072Y-97920943D01*
X97299500Y-97920943D01*
X97299500Y-98079057D01*
X97329605Y-98191408D01*
X97340423Y-98231783D01*
X97340426Y-98231790D01*
X97419475Y-98368709D01*
X97419479Y-98368714D01*
X97419480Y-98368716D01*
X97531284Y-98480520D01*
X97531286Y-98480521D01*
X97531290Y-98480524D01*
X97668209Y-98559573D01*
X97668216Y-98559577D01*
X97820943Y-98600500D01*
X97820945Y-98600500D01*
X97979055Y-98600500D01*
X97979057Y-98600500D01*
X98131784Y-98559577D01*
X98268716Y-98480520D01*
X98380520Y-98368716D01*
X98459577Y-98231784D01*
X98500500Y-98079057D01*
X98500500Y-97920943D01*
X98459577Y-97768216D01*
X98436263Y-97727834D01*
X98380524Y-97631290D01*
X98380518Y-97631282D01*
X98268717Y-97519481D01*
X98268709Y-97519475D01*
X98131790Y-97440426D01*
X98131786Y-97440424D01*
X98131784Y-97440423D01*
X97979057Y-97399500D01*
X97820943Y-97399500D01*
X97668216Y-97440423D01*
X97668209Y-97440426D01*
X97531290Y-97519475D01*
X97531282Y-97519481D01*
X97419481Y-97631282D01*
X97419475Y-97631290D01*
X97340426Y-97768209D01*
X97340423Y-97768216D01*
X97299500Y-97920943D01*
X93520072Y-97920943D01*
X93475431Y-97876302D01*
X93475423Y-97876296D01*
X93338504Y-97797247D01*
X93338501Y-97797245D01*
X93338498Y-97797244D01*
X93338494Y-97797243D01*
X93330991Y-97794135D01*
X93331916Y-97791901D01*
X93282731Y-97761910D01*
X93252213Y-97699057D01*
X93250500Y-97678516D01*
X93250500Y-97620945D01*
X93250500Y-97620943D01*
X93209577Y-97468216D01*
X93193531Y-97440423D01*
X93130524Y-97331290D01*
X93130518Y-97331282D01*
X93018717Y-97219481D01*
X93018709Y-97219475D01*
X92881790Y-97140426D01*
X92881786Y-97140424D01*
X92881784Y-97140423D01*
X92729057Y-97099500D01*
X92570943Y-97099500D01*
X92418216Y-97140423D01*
X92418209Y-97140426D01*
X92281290Y-97219475D01*
X92281282Y-97219481D01*
X92169481Y-97331282D01*
X92169475Y-97331290D01*
X92090426Y-97468209D01*
X92090423Y-97468216D01*
X92049500Y-97620943D01*
X87947861Y-97620943D01*
X87930521Y-97590909D01*
X87818717Y-97479105D01*
X87818715Y-97479104D01*
X87818710Y-97479100D01*
X87681791Y-97400051D01*
X87681787Y-97400049D01*
X87681785Y-97400048D01*
X87529058Y-97359125D01*
X87370944Y-97359125D01*
X87218217Y-97400048D01*
X87218210Y-97400051D01*
X87081291Y-97479100D01*
X87081283Y-97479106D01*
X86969482Y-97590907D01*
X86969476Y-97590915D01*
X86890427Y-97727834D01*
X86890424Y-97727841D01*
X86849501Y-97880568D01*
X56500500Y-97880568D01*
X56500500Y-95620943D01*
X85399500Y-95620943D01*
X85399500Y-95779056D01*
X85440423Y-95931783D01*
X85440426Y-95931790D01*
X85519475Y-96068709D01*
X85519479Y-96068714D01*
X85519480Y-96068716D01*
X85631284Y-96180520D01*
X85631286Y-96180521D01*
X85631290Y-96180524D01*
X85768209Y-96259573D01*
X85768216Y-96259577D01*
X85920943Y-96300500D01*
X85920945Y-96300500D01*
X86079055Y-96300500D01*
X86079057Y-96300500D01*
X86231784Y-96259577D01*
X86368716Y-96180520D01*
X86428293Y-96120943D01*
X87099500Y-96120943D01*
X87099500Y-96279057D01*
X87105246Y-96300499D01*
X87140423Y-96431783D01*
X87140426Y-96431790D01*
X87219475Y-96568709D01*
X87219479Y-96568714D01*
X87219480Y-96568716D01*
X87331284Y-96680520D01*
X87331286Y-96680521D01*
X87331290Y-96680524D01*
X87468209Y-96759573D01*
X87468216Y-96759577D01*
X87620943Y-96800500D01*
X87620945Y-96800500D01*
X87779055Y-96800500D01*
X87779057Y-96800500D01*
X87931784Y-96759577D01*
X88068716Y-96680520D01*
X88180520Y-96568716D01*
X88259577Y-96431784D01*
X88300500Y-96279057D01*
X88300500Y-96120943D01*
X88259577Y-95968216D01*
X88238543Y-95931783D01*
X88180524Y-95831290D01*
X88180518Y-95831282D01*
X88068717Y-95719481D01*
X88068709Y-95719475D01*
X87931790Y-95640426D01*
X87931786Y-95640424D01*
X87931784Y-95640423D01*
X87779057Y-95599500D01*
X87620943Y-95599500D01*
X87468216Y-95640423D01*
X87468209Y-95640426D01*
X87331290Y-95719475D01*
X87331282Y-95719481D01*
X87219481Y-95831282D01*
X87219475Y-95831290D01*
X87140426Y-95968209D01*
X87140423Y-95968216D01*
X87099500Y-96120943D01*
X86428293Y-96120943D01*
X86480520Y-96068716D01*
X86484352Y-96062078D01*
X86490855Y-96050816D01*
X86538547Y-95968209D01*
X86559577Y-95931784D01*
X86600500Y-95779057D01*
X86600500Y-95620943D01*
X86559577Y-95468216D01*
X86554587Y-95459573D01*
X86480524Y-95331290D01*
X86480518Y-95331282D01*
X86368717Y-95219481D01*
X86368709Y-95219475D01*
X86231790Y-95140426D01*
X86231786Y-95140424D01*
X86231784Y-95140423D01*
X86079057Y-95099500D01*
X85920943Y-95099500D01*
X85768216Y-95140423D01*
X85768209Y-95140426D01*
X85631290Y-95219475D01*
X85631282Y-95219481D01*
X85519481Y-95331282D01*
X85519475Y-95331290D01*
X85440426Y-95468209D01*
X85440423Y-95468216D01*
X85399500Y-95620943D01*
X56500500Y-95620943D01*
X56500500Y-94620943D01*
X92399500Y-94620943D01*
X92399500Y-94779057D01*
X92437846Y-94922164D01*
X92440423Y-94931783D01*
X92440426Y-94931790D01*
X92519475Y-95068709D01*
X92519479Y-95068714D01*
X92519480Y-95068716D01*
X92631284Y-95180520D01*
X92631286Y-95180521D01*
X92631290Y-95180524D01*
X92768209Y-95259573D01*
X92768216Y-95259577D01*
X92920943Y-95300500D01*
X92920945Y-95300500D01*
X93079055Y-95300500D01*
X93079057Y-95300500D01*
X93231784Y-95259577D01*
X93368716Y-95180520D01*
X93480520Y-95068716D01*
X93559577Y-94931784D01*
X93600500Y-94779057D01*
X93600500Y-94620943D01*
X93597922Y-94611323D01*
X93889880Y-94611323D01*
X93889880Y-94769437D01*
X93896406Y-94793790D01*
X93930803Y-94922163D01*
X93930806Y-94922170D01*
X94009855Y-95059089D01*
X94009859Y-95059094D01*
X94009860Y-95059096D01*
X94121664Y-95170900D01*
X94121666Y-95170901D01*
X94121670Y-95170904D01*
X94258589Y-95249953D01*
X94258596Y-95249957D01*
X94411323Y-95290880D01*
X94411325Y-95290880D01*
X94569435Y-95290880D01*
X94569437Y-95290880D01*
X94722164Y-95249957D01*
X94859096Y-95170900D01*
X94946553Y-95083443D01*
X97299500Y-95083443D01*
X97299500Y-95241557D01*
X97336735Y-95380518D01*
X97340423Y-95394283D01*
X97340426Y-95394290D01*
X97419475Y-95531209D01*
X97419479Y-95531214D01*
X97419480Y-95531216D01*
X97531284Y-95643020D01*
X97531286Y-95643021D01*
X97531290Y-95643024D01*
X97668209Y-95722073D01*
X97668216Y-95722077D01*
X97820943Y-95763000D01*
X97820945Y-95763000D01*
X97979055Y-95763000D01*
X97979057Y-95763000D01*
X98131784Y-95722077D01*
X98268716Y-95643020D01*
X98380520Y-95531216D01*
X98459577Y-95394284D01*
X98500500Y-95241557D01*
X98500500Y-95083443D01*
X98459577Y-94930716D01*
X98454639Y-94922163D01*
X98380524Y-94793790D01*
X98380518Y-94793782D01*
X98268717Y-94681981D01*
X98268709Y-94681975D01*
X98131790Y-94602926D01*
X98131786Y-94602924D01*
X98131784Y-94602923D01*
X97979057Y-94562000D01*
X97820943Y-94562000D01*
X97668216Y-94602923D01*
X97668209Y-94602926D01*
X97531290Y-94681975D01*
X97531282Y-94681981D01*
X97419481Y-94793782D01*
X97419475Y-94793790D01*
X97340426Y-94930709D01*
X97340423Y-94930716D01*
X97299500Y-95083443D01*
X94946553Y-95083443D01*
X94970900Y-95059096D01*
X95049957Y-94922164D01*
X95090880Y-94769437D01*
X95090880Y-94611323D01*
X95049957Y-94458596D01*
X95016415Y-94400499D01*
X94970904Y-94321670D01*
X94970898Y-94321662D01*
X94859097Y-94209861D01*
X94859089Y-94209855D01*
X94722170Y-94130806D01*
X94722166Y-94130804D01*
X94722164Y-94130803D01*
X94569437Y-94089880D01*
X94411323Y-94089880D01*
X94258596Y-94130803D01*
X94258589Y-94130806D01*
X94121670Y-94209855D01*
X94121662Y-94209861D01*
X94009861Y-94321662D01*
X94009855Y-94321670D01*
X93930806Y-94458589D01*
X93930803Y-94458596D01*
X93889880Y-94611323D01*
X93597922Y-94611323D01*
X93559577Y-94468216D01*
X93520481Y-94400499D01*
X93480524Y-94331290D01*
X93480518Y-94331282D01*
X93368717Y-94219481D01*
X93368709Y-94219475D01*
X93231790Y-94140426D01*
X93231786Y-94140424D01*
X93231784Y-94140423D01*
X93079057Y-94099500D01*
X92920943Y-94099500D01*
X92768216Y-94140423D01*
X92768209Y-94140426D01*
X92631290Y-94219475D01*
X92631282Y-94219481D01*
X92519481Y-94331282D01*
X92519475Y-94331290D01*
X92440426Y-94468209D01*
X92440423Y-94468216D01*
X92399500Y-94620943D01*
X56500500Y-94620943D01*
X56500500Y-93720943D01*
X87399500Y-93720943D01*
X87399500Y-93879057D01*
X87416991Y-93944332D01*
X87440423Y-94031783D01*
X87440426Y-94031790D01*
X87519475Y-94168709D01*
X87519479Y-94168714D01*
X87519480Y-94168716D01*
X87631284Y-94280520D01*
X87631286Y-94280521D01*
X87631290Y-94280524D01*
X87735040Y-94340423D01*
X87768216Y-94359577D01*
X87920943Y-94400500D01*
X87920945Y-94400500D01*
X88079055Y-94400500D01*
X88079057Y-94400500D01*
X88231784Y-94359577D01*
X88368716Y-94280520D01*
X88480520Y-94168716D01*
X88559577Y-94031784D01*
X88600500Y-93879057D01*
X88600500Y-93720943D01*
X88559577Y-93568216D01*
X88540785Y-93535667D01*
X88480524Y-93431290D01*
X88480518Y-93431282D01*
X88368717Y-93319481D01*
X88368709Y-93319475D01*
X88231790Y-93240426D01*
X88231786Y-93240424D01*
X88231784Y-93240423D01*
X88079057Y-93199500D01*
X87920943Y-93199500D01*
X87768216Y-93240423D01*
X87768209Y-93240426D01*
X87631290Y-93319475D01*
X87631282Y-93319481D01*
X87519481Y-93431282D01*
X87519475Y-93431290D01*
X87440426Y-93568209D01*
X87440423Y-93568216D01*
X87399500Y-93720943D01*
X56500500Y-93720943D01*
X56500500Y-92413992D01*
X109994500Y-92413992D01*
X109994500Y-92616007D01*
X110033907Y-92814119D01*
X110033909Y-92814127D01*
X110111212Y-93000752D01*
X110111217Y-93000762D01*
X110223441Y-93168718D01*
X110366281Y-93311558D01*
X110534237Y-93423782D01*
X110534241Y-93423784D01*
X110534244Y-93423786D01*
X110720873Y-93501091D01*
X110894700Y-93535667D01*
X110918992Y-93540499D01*
X110918996Y-93540500D01*
X110918997Y-93540500D01*
X111520541Y-93540500D01*
X111587580Y-93560185D01*
X111633335Y-93612989D01*
X111641980Y-93664915D01*
X111644500Y-93664915D01*
X111644500Y-93671007D01*
X111644500Y-93808993D01*
X111644500Y-93808995D01*
X111644499Y-93808995D01*
X111671418Y-93944322D01*
X111671421Y-93944332D01*
X111724221Y-94071804D01*
X111724228Y-94071817D01*
X111800885Y-94186541D01*
X111800888Y-94186545D01*
X111898454Y-94284111D01*
X111898458Y-94284114D01*
X112013182Y-94360771D01*
X112013195Y-94360778D01*
X112109094Y-94400500D01*
X112140672Y-94413580D01*
X112140676Y-94413580D01*
X112140677Y-94413581D01*
X112192300Y-94423850D01*
X112254211Y-94456235D01*
X112288785Y-94516951D01*
X112285045Y-94586720D01*
X112275496Y-94607465D01*
X112240425Y-94668211D01*
X112240423Y-94668216D01*
X112199500Y-94820943D01*
X112199500Y-94979057D01*
X112223525Y-95068717D01*
X112240423Y-95131783D01*
X112240426Y-95131790D01*
X112319475Y-95268709D01*
X112319479Y-95268714D01*
X112319480Y-95268716D01*
X112431284Y-95380520D01*
X112431286Y-95380521D01*
X112431290Y-95380524D01*
X112568209Y-95459573D01*
X112568216Y-95459577D01*
X112720943Y-95500500D01*
X112720945Y-95500500D01*
X112879055Y-95500500D01*
X112879057Y-95500500D01*
X113031784Y-95459577D01*
X113168716Y-95380520D01*
X113280520Y-95268716D01*
X113359577Y-95131784D01*
X113400500Y-94979057D01*
X113400500Y-94820943D01*
X113359577Y-94668216D01*
X113332284Y-94620943D01*
X113280524Y-94531290D01*
X113280518Y-94531282D01*
X113168717Y-94419481D01*
X113168709Y-94419475D01*
X113031790Y-94340426D01*
X113031786Y-94340424D01*
X113031784Y-94340423D01*
X113031782Y-94340422D01*
X113031779Y-94340421D01*
X112990716Y-94329418D01*
X112931056Y-94293053D01*
X112900528Y-94230205D01*
X112908823Y-94160830D01*
X112919704Y-94140759D01*
X112965775Y-94071811D01*
X113018580Y-93944328D01*
X113045500Y-93808993D01*
X113045500Y-93671007D01*
X113045500Y-93671004D01*
X113018581Y-93535677D01*
X113018580Y-93535676D01*
X113018580Y-93535672D01*
X112975344Y-93431290D01*
X112965778Y-93408195D01*
X112965771Y-93408182D01*
X112889114Y-93293458D01*
X112889111Y-93293454D01*
X112791545Y-93195888D01*
X112791541Y-93195885D01*
X112676817Y-93119228D01*
X112676804Y-93119221D01*
X112580462Y-93079316D01*
X112526058Y-93035476D01*
X112503993Y-92969182D01*
X112513351Y-92917307D01*
X112556091Y-92814127D01*
X112595500Y-92616003D01*
X112595500Y-92413997D01*
X112556091Y-92215873D01*
X112478786Y-92029244D01*
X112478784Y-92029241D01*
X112478782Y-92029237D01*
X112366558Y-91861281D01*
X112223718Y-91718441D01*
X112055762Y-91606217D01*
X112055752Y-91606212D01*
X111869127Y-91528909D01*
X111869119Y-91528907D01*
X111671007Y-91489500D01*
X111671003Y-91489500D01*
X110918997Y-91489500D01*
X110918992Y-91489500D01*
X110720880Y-91528907D01*
X110720872Y-91528909D01*
X110534247Y-91606212D01*
X110534237Y-91606217D01*
X110366281Y-91718441D01*
X110223441Y-91861281D01*
X110111217Y-92029237D01*
X110111212Y-92029247D01*
X110033909Y-92215872D01*
X110033907Y-92215880D01*
X109994500Y-92413992D01*
X56500500Y-92413992D01*
X56500500Y-90320943D01*
X61999500Y-90320943D01*
X61999500Y-90479057D01*
X62037127Y-90619481D01*
X62040423Y-90631783D01*
X62040426Y-90631790D01*
X62119475Y-90768709D01*
X62119479Y-90768714D01*
X62119480Y-90768716D01*
X62231284Y-90880520D01*
X62231286Y-90880521D01*
X62231290Y-90880524D01*
X62320080Y-90931786D01*
X62368216Y-90959577D01*
X62520943Y-91000500D01*
X62520945Y-91000500D01*
X62679055Y-91000500D01*
X62679057Y-91000500D01*
X62831784Y-90959577D01*
X62968716Y-90880520D01*
X63028293Y-90820943D01*
X64599500Y-90820943D01*
X64599500Y-90979057D01*
X64626687Y-91080518D01*
X64640423Y-91131783D01*
X64640426Y-91131790D01*
X64719475Y-91268709D01*
X64719479Y-91268714D01*
X64719480Y-91268716D01*
X64831284Y-91380520D01*
X64831286Y-91380521D01*
X64831290Y-91380524D01*
X64920087Y-91431790D01*
X64968216Y-91459577D01*
X65120943Y-91500500D01*
X65120945Y-91500500D01*
X65279055Y-91500500D01*
X65279057Y-91500500D01*
X65431784Y-91459577D01*
X65568716Y-91380520D01*
X65680520Y-91268716D01*
X65759577Y-91131784D01*
X65800500Y-90979057D01*
X65800500Y-90820943D01*
X65759577Y-90668216D01*
X65752252Y-90655529D01*
X65732284Y-90620943D01*
X66599500Y-90620943D01*
X66599500Y-90779057D01*
X66626687Y-90880518D01*
X66640423Y-90931783D01*
X66640426Y-90931790D01*
X66719475Y-91068709D01*
X66719479Y-91068714D01*
X66719480Y-91068716D01*
X66831284Y-91180520D01*
X66831286Y-91180521D01*
X66831290Y-91180524D01*
X66911508Y-91226837D01*
X66968216Y-91259577D01*
X67120943Y-91300500D01*
X67120945Y-91300500D01*
X67279055Y-91300500D01*
X67279057Y-91300500D01*
X67431784Y-91259577D01*
X67568716Y-91180520D01*
X67680520Y-91068716D01*
X67708102Y-91020943D01*
X70499500Y-91020943D01*
X70499500Y-91179057D01*
X70532041Y-91300500D01*
X70540423Y-91331783D01*
X70540426Y-91331790D01*
X70619475Y-91468709D01*
X70619479Y-91468714D01*
X70619480Y-91468716D01*
X70731284Y-91580520D01*
X70731286Y-91580521D01*
X70731290Y-91580524D01*
X70868209Y-91659573D01*
X70868216Y-91659577D01*
X71020943Y-91700500D01*
X71020945Y-91700500D01*
X71179055Y-91700500D01*
X71179057Y-91700500D01*
X71331784Y-91659577D01*
X71468716Y-91580520D01*
X71580520Y-91468716D01*
X71659577Y-91331784D01*
X71700500Y-91179057D01*
X71700500Y-91120943D01*
X76399500Y-91120943D01*
X76399500Y-91279057D01*
X76426687Y-91380518D01*
X76440423Y-91431783D01*
X76440426Y-91431790D01*
X76519475Y-91568709D01*
X76519479Y-91568714D01*
X76519480Y-91568716D01*
X76631284Y-91680520D01*
X76631286Y-91680521D01*
X76631290Y-91680524D01*
X76696967Y-91718442D01*
X76768216Y-91759577D01*
X76920943Y-91800500D01*
X76920945Y-91800500D01*
X77079055Y-91800500D01*
X77079057Y-91800500D01*
X77231784Y-91759577D01*
X77368716Y-91680520D01*
X77480520Y-91568716D01*
X77559577Y-91431784D01*
X77600500Y-91279057D01*
X77600500Y-91120943D01*
X78399500Y-91120943D01*
X78399500Y-91279057D01*
X78426687Y-91380518D01*
X78440423Y-91431783D01*
X78440426Y-91431790D01*
X78519475Y-91568709D01*
X78519479Y-91568714D01*
X78519480Y-91568716D01*
X78631284Y-91680520D01*
X78631286Y-91680521D01*
X78631290Y-91680524D01*
X78696967Y-91718442D01*
X78768216Y-91759577D01*
X78920943Y-91800500D01*
X78920945Y-91800500D01*
X79079055Y-91800500D01*
X79079057Y-91800500D01*
X79231784Y-91759577D01*
X79368716Y-91680520D01*
X79480520Y-91568716D01*
X79559577Y-91431784D01*
X79600500Y-91279057D01*
X79600500Y-91136046D01*
X93914603Y-91136046D01*
X93914603Y-91294160D01*
X93924685Y-91331784D01*
X93955526Y-91446886D01*
X93955529Y-91446893D01*
X94034578Y-91583812D01*
X94034582Y-91583817D01*
X94034583Y-91583819D01*
X94146387Y-91695623D01*
X94146389Y-91695624D01*
X94146393Y-91695627D01*
X94283312Y-91774676D01*
X94283319Y-91774680D01*
X94436046Y-91815603D01*
X94436048Y-91815603D01*
X94594158Y-91815603D01*
X94594160Y-91815603D01*
X94746887Y-91774680D01*
X94883819Y-91695623D01*
X94995623Y-91583819D01*
X95074680Y-91446887D01*
X95115603Y-91294160D01*
X95115603Y-91294147D01*
X95116053Y-91290734D01*
X95117239Y-91288052D01*
X95117706Y-91286310D01*
X95117977Y-91286382D01*
X95144317Y-91226837D01*
X95202641Y-91188363D01*
X95271082Y-91187140D01*
X95320943Y-91200500D01*
X95320946Y-91200500D01*
X95479055Y-91200500D01*
X95479057Y-91200500D01*
X95631784Y-91159577D01*
X95768716Y-91080520D01*
X95880520Y-90968716D01*
X95959577Y-90831784D01*
X96000500Y-90679057D01*
X96000500Y-90520943D01*
X95959577Y-90368216D01*
X95938258Y-90331290D01*
X95880524Y-90231290D01*
X95880518Y-90231282D01*
X95768717Y-90119481D01*
X95768709Y-90119475D01*
X95631790Y-90040426D01*
X95631786Y-90040424D01*
X95631784Y-90040423D01*
X95479057Y-89999500D01*
X95320943Y-89999500D01*
X95168216Y-90040423D01*
X95168209Y-90040426D01*
X95031290Y-90119475D01*
X95031282Y-90119481D01*
X94919481Y-90231282D01*
X94919475Y-90231290D01*
X94840426Y-90368209D01*
X94840423Y-90368216D01*
X94810724Y-90479057D01*
X94799499Y-90520948D01*
X94799047Y-90524380D01*
X94797861Y-90527059D01*
X94797397Y-90528793D01*
X94797126Y-90528720D01*
X94770777Y-90588275D01*
X94712450Y-90626742D01*
X94644016Y-90627961D01*
X94594160Y-90614603D01*
X94436046Y-90614603D01*
X94283319Y-90655526D01*
X94283312Y-90655529D01*
X94146393Y-90734578D01*
X94146385Y-90734584D01*
X94034584Y-90846385D01*
X94034578Y-90846393D01*
X93955529Y-90983312D01*
X93955526Y-90983319D01*
X93914603Y-91136046D01*
X79600500Y-91136046D01*
X79600500Y-91120943D01*
X79559577Y-90968216D01*
X79538543Y-90931783D01*
X79480524Y-90831290D01*
X79480518Y-90831282D01*
X79368717Y-90719481D01*
X79368709Y-90719475D01*
X79231790Y-90640426D01*
X79231786Y-90640424D01*
X79231784Y-90640423D01*
X79079057Y-90599500D01*
X78920943Y-90599500D01*
X78768216Y-90640423D01*
X78768209Y-90640426D01*
X78631290Y-90719475D01*
X78631282Y-90719481D01*
X78519481Y-90831282D01*
X78519475Y-90831290D01*
X78440426Y-90968209D01*
X78440423Y-90968216D01*
X78399500Y-91120943D01*
X77600500Y-91120943D01*
X77559577Y-90968216D01*
X77538543Y-90931783D01*
X77480524Y-90831290D01*
X77480518Y-90831282D01*
X77368717Y-90719481D01*
X77368709Y-90719475D01*
X77231790Y-90640426D01*
X77231786Y-90640424D01*
X77231784Y-90640423D01*
X77079057Y-90599500D01*
X76920943Y-90599500D01*
X76768216Y-90640423D01*
X76768209Y-90640426D01*
X76631290Y-90719475D01*
X76631282Y-90719481D01*
X76519481Y-90831282D01*
X76519475Y-90831290D01*
X76440426Y-90968209D01*
X76440423Y-90968216D01*
X76399500Y-91120943D01*
X71700500Y-91120943D01*
X71700500Y-91020943D01*
X71659577Y-90868216D01*
X71638258Y-90831290D01*
X71580524Y-90731290D01*
X71580518Y-90731282D01*
X71468717Y-90619481D01*
X71468709Y-90619475D01*
X71331790Y-90540426D01*
X71331786Y-90540424D01*
X71331784Y-90540423D01*
X71179057Y-90499500D01*
X71020943Y-90499500D01*
X70868216Y-90540423D01*
X70868209Y-90540426D01*
X70731290Y-90619475D01*
X70731282Y-90619481D01*
X70619481Y-90731282D01*
X70619475Y-90731290D01*
X70540426Y-90868209D01*
X70540423Y-90868216D01*
X70499500Y-91020943D01*
X67708102Y-91020943D01*
X67759577Y-90931784D01*
X67800500Y-90779057D01*
X67800500Y-90620943D01*
X67759577Y-90468216D01*
X67701843Y-90368216D01*
X67680524Y-90331290D01*
X67680518Y-90331282D01*
X67568717Y-90219481D01*
X67568709Y-90219475D01*
X67431790Y-90140426D01*
X67431786Y-90140424D01*
X67431784Y-90140423D01*
X67279057Y-90099500D01*
X67120943Y-90099500D01*
X66968216Y-90140423D01*
X66968209Y-90140426D01*
X66831290Y-90219475D01*
X66831282Y-90219481D01*
X66719481Y-90331282D01*
X66719475Y-90331290D01*
X66640426Y-90468209D01*
X66640423Y-90468216D01*
X66599500Y-90620943D01*
X65732284Y-90620943D01*
X65680522Y-90531287D01*
X65680518Y-90531282D01*
X65568717Y-90419481D01*
X65568709Y-90419475D01*
X65431790Y-90340426D01*
X65431786Y-90340424D01*
X65431784Y-90340423D01*
X65279057Y-90299500D01*
X65120943Y-90299500D01*
X64968216Y-90340423D01*
X64968209Y-90340426D01*
X64831290Y-90419475D01*
X64831282Y-90419481D01*
X64719481Y-90531282D01*
X64719475Y-90531290D01*
X64640426Y-90668209D01*
X64640426Y-90668210D01*
X64640423Y-90668216D01*
X64599500Y-90820943D01*
X63028293Y-90820943D01*
X63080520Y-90768716D01*
X63084352Y-90762078D01*
X63090855Y-90750816D01*
X63132284Y-90679057D01*
X63159577Y-90631784D01*
X63200500Y-90479057D01*
X63200500Y-90320943D01*
X63159577Y-90168216D01*
X63119904Y-90099500D01*
X63080524Y-90031290D01*
X63080518Y-90031282D01*
X62968717Y-89919481D01*
X62968709Y-89919475D01*
X62831790Y-89840426D01*
X62831786Y-89840424D01*
X62831784Y-89840423D01*
X62679057Y-89799500D01*
X62520943Y-89799500D01*
X62368216Y-89840423D01*
X62368209Y-89840426D01*
X62231290Y-89919475D01*
X62231282Y-89919481D01*
X62119481Y-90031282D01*
X62119475Y-90031290D01*
X62040426Y-90168209D01*
X62040423Y-90168216D01*
X61999500Y-90320943D01*
X56500500Y-90320943D01*
X56500500Y-86220943D01*
X57799500Y-86220943D01*
X57799500Y-86379057D01*
X57826687Y-86480518D01*
X57840423Y-86531783D01*
X57840426Y-86531790D01*
X57919475Y-86668709D01*
X57919479Y-86668714D01*
X57919480Y-86668716D01*
X58031284Y-86780520D01*
X58031286Y-86780521D01*
X58031290Y-86780524D01*
X58168209Y-86859573D01*
X58168216Y-86859577D01*
X58320943Y-86900500D01*
X58320945Y-86900500D01*
X58479055Y-86900500D01*
X58479057Y-86900500D01*
X58631784Y-86859577D01*
X58768716Y-86780520D01*
X58880520Y-86668716D01*
X58959577Y-86531784D01*
X59000500Y-86379057D01*
X59000500Y-86220943D01*
X58959577Y-86068216D01*
X58880520Y-85931284D01*
X58870179Y-85920943D01*
X67199500Y-85920943D01*
X67199500Y-86079057D01*
X67226295Y-86179055D01*
X67240423Y-86231783D01*
X67240426Y-86231790D01*
X67319475Y-86368709D01*
X67319479Y-86368714D01*
X67319480Y-86368716D01*
X67431284Y-86480520D01*
X67431286Y-86480521D01*
X67431290Y-86480524D01*
X67520087Y-86531790D01*
X67568216Y-86559577D01*
X67720943Y-86600500D01*
X67720945Y-86600500D01*
X67879055Y-86600500D01*
X67879057Y-86600500D01*
X68031784Y-86559577D01*
X68168716Y-86480520D01*
X68280520Y-86368716D01*
X68359577Y-86231784D01*
X68400500Y-86079057D01*
X68400500Y-86020943D01*
X72899500Y-86020943D01*
X72899500Y-86179057D01*
X72910724Y-86220943D01*
X72940423Y-86331783D01*
X72940426Y-86331790D01*
X73019475Y-86468709D01*
X73019479Y-86468714D01*
X73019480Y-86468716D01*
X73131284Y-86580520D01*
X73131286Y-86580521D01*
X73131290Y-86580524D01*
X73268209Y-86659573D01*
X73268216Y-86659577D01*
X73420943Y-86700500D01*
X73420945Y-86700500D01*
X73579055Y-86700500D01*
X73579057Y-86700500D01*
X73731784Y-86659577D01*
X73868716Y-86580520D01*
X73980520Y-86468716D01*
X74059577Y-86331784D01*
X74100500Y-86179057D01*
X74100500Y-86020943D01*
X74059577Y-85868216D01*
X74001843Y-85768216D01*
X73980524Y-85731290D01*
X73980518Y-85731282D01*
X73868717Y-85619481D01*
X73868709Y-85619475D01*
X73731790Y-85540426D01*
X73731786Y-85540424D01*
X73731784Y-85540423D01*
X73579057Y-85499500D01*
X73420943Y-85499500D01*
X73268216Y-85540423D01*
X73268209Y-85540426D01*
X73131290Y-85619475D01*
X73131282Y-85619481D01*
X73019481Y-85731282D01*
X73019475Y-85731290D01*
X72940426Y-85868209D01*
X72940423Y-85868216D01*
X72899500Y-86020943D01*
X68400500Y-86020943D01*
X68400500Y-85920943D01*
X68359577Y-85768216D01*
X68338258Y-85731290D01*
X68280524Y-85631290D01*
X68280518Y-85631282D01*
X68168717Y-85519481D01*
X68168709Y-85519475D01*
X68031790Y-85440426D01*
X68031786Y-85440424D01*
X68031784Y-85440423D01*
X67879057Y-85399500D01*
X67720943Y-85399500D01*
X67568216Y-85440423D01*
X67568209Y-85440426D01*
X67431290Y-85519475D01*
X67431282Y-85519481D01*
X67319481Y-85631282D01*
X67319475Y-85631290D01*
X67240426Y-85768209D01*
X67240423Y-85768216D01*
X67199500Y-85920943D01*
X58870179Y-85920943D01*
X58768716Y-85819480D01*
X58768714Y-85819479D01*
X58768709Y-85819475D01*
X58631790Y-85740426D01*
X58631786Y-85740424D01*
X58631784Y-85740423D01*
X58479057Y-85699500D01*
X58320943Y-85699500D01*
X58168216Y-85740423D01*
X58168209Y-85740426D01*
X58031290Y-85819475D01*
X58031282Y-85819481D01*
X57919481Y-85931282D01*
X57919475Y-85931290D01*
X57840426Y-86068209D01*
X57840423Y-86068216D01*
X57799500Y-86220943D01*
X56500500Y-86220943D01*
X56500500Y-84920943D01*
X69599500Y-84920943D01*
X69599500Y-85079056D01*
X69640423Y-85231783D01*
X69640426Y-85231790D01*
X69719475Y-85368709D01*
X69719479Y-85368714D01*
X69719480Y-85368716D01*
X69831284Y-85480520D01*
X69831286Y-85480521D01*
X69831290Y-85480524D01*
X69898765Y-85519480D01*
X69968216Y-85559577D01*
X70120943Y-85600500D01*
X70120945Y-85600500D01*
X70279055Y-85600500D01*
X70279057Y-85600500D01*
X70431784Y-85559577D01*
X70568716Y-85480520D01*
X70680520Y-85368716D01*
X70759577Y-85231784D01*
X70800500Y-85079057D01*
X70800500Y-84920943D01*
X70759577Y-84768216D01*
X70759573Y-84768209D01*
X70680524Y-84631290D01*
X70680518Y-84631282D01*
X70568717Y-84519481D01*
X70568709Y-84519475D01*
X70431790Y-84440426D01*
X70431786Y-84440424D01*
X70431784Y-84440423D01*
X70279057Y-84399500D01*
X70120943Y-84399500D01*
X69968216Y-84440423D01*
X69968209Y-84440426D01*
X69831290Y-84519475D01*
X69831282Y-84519481D01*
X69719481Y-84631282D01*
X69719475Y-84631290D01*
X69640426Y-84768209D01*
X69640423Y-84768216D01*
X69599500Y-84920943D01*
X56500500Y-84920943D01*
X56500500Y-83420943D01*
X71499500Y-83420943D01*
X71499500Y-83579056D01*
X71540423Y-83731783D01*
X71540426Y-83731790D01*
X71619475Y-83868709D01*
X71619479Y-83868714D01*
X71619480Y-83868716D01*
X71731284Y-83980520D01*
X71731286Y-83980521D01*
X71731290Y-83980524D01*
X71868209Y-84059573D01*
X71868216Y-84059577D01*
X72020943Y-84100500D01*
X72020945Y-84100500D01*
X72179055Y-84100500D01*
X72179057Y-84100500D01*
X72331784Y-84059577D01*
X72468716Y-83980520D01*
X72580520Y-83868716D01*
X72659577Y-83731784D01*
X72700500Y-83579057D01*
X72700500Y-83420943D01*
X72659577Y-83268216D01*
X72592225Y-83151557D01*
X72580524Y-83131290D01*
X72580518Y-83131282D01*
X72468717Y-83019481D01*
X72468709Y-83019475D01*
X72331790Y-82940426D01*
X72331786Y-82940424D01*
X72331784Y-82940423D01*
X72179057Y-82899500D01*
X72020943Y-82899500D01*
X71868216Y-82940423D01*
X71868209Y-82940426D01*
X71731290Y-83019475D01*
X71731282Y-83019481D01*
X71619481Y-83131282D01*
X71619475Y-83131290D01*
X71540426Y-83268209D01*
X71540423Y-83268216D01*
X71499500Y-83420943D01*
X56500500Y-83420943D01*
X56500500Y-82003750D01*
X56500726Y-81996263D01*
X56505977Y-81909448D01*
X56512978Y-81793713D01*
X57649500Y-81793713D01*
X57649500Y-82006287D01*
X57655819Y-82046186D01*
X57682703Y-82215925D01*
X57682754Y-82216243D01*
X57730166Y-82362162D01*
X57748444Y-82418414D01*
X57844951Y-82607820D01*
X57969890Y-82779786D01*
X58120213Y-82930109D01*
X58292179Y-83055048D01*
X58292181Y-83055049D01*
X58292184Y-83055051D01*
X58481588Y-83151557D01*
X58683757Y-83217246D01*
X58893713Y-83250500D01*
X58893714Y-83250500D01*
X59106286Y-83250500D01*
X59106287Y-83250500D01*
X59316243Y-83217246D01*
X59518412Y-83151557D01*
X59707816Y-83055051D01*
X59812415Y-82979056D01*
X59879786Y-82930109D01*
X59879788Y-82930106D01*
X59879792Y-82930104D01*
X59988953Y-82820943D01*
X75599500Y-82820943D01*
X75599500Y-82979057D01*
X75640289Y-83131282D01*
X75640423Y-83131783D01*
X75640426Y-83131790D01*
X75719475Y-83268709D01*
X75719479Y-83268714D01*
X75719480Y-83268716D01*
X75831284Y-83380520D01*
X75831286Y-83380521D01*
X75831290Y-83380524D01*
X75968209Y-83459573D01*
X75968216Y-83459577D01*
X76120943Y-83500500D01*
X76120945Y-83500500D01*
X76279055Y-83500500D01*
X76279057Y-83500500D01*
X76431784Y-83459577D01*
X76498701Y-83420943D01*
X99299500Y-83420943D01*
X99299500Y-83579056D01*
X99340423Y-83731783D01*
X99340426Y-83731790D01*
X99419475Y-83868709D01*
X99419479Y-83868714D01*
X99419480Y-83868716D01*
X99531284Y-83980520D01*
X99531286Y-83980521D01*
X99531290Y-83980524D01*
X99668209Y-84059573D01*
X99668216Y-84059577D01*
X99820943Y-84100500D01*
X99820945Y-84100500D01*
X99979055Y-84100500D01*
X99979057Y-84100500D01*
X100131784Y-84059577D01*
X100268716Y-83980520D01*
X100380520Y-83868716D01*
X100459577Y-83731784D01*
X100500500Y-83579057D01*
X100500500Y-83420943D01*
X100459577Y-83268216D01*
X100392225Y-83151557D01*
X100380524Y-83131290D01*
X100380518Y-83131282D01*
X100361417Y-83112181D01*
X100327932Y-83050858D01*
X100332916Y-82981166D01*
X100374788Y-82925233D01*
X100440252Y-82900816D01*
X100449098Y-82900500D01*
X100590551Y-82900500D01*
X100677259Y-82886765D01*
X100769409Y-82872171D01*
X100941639Y-82816211D01*
X101102994Y-82733996D01*
X101249501Y-82627553D01*
X101377553Y-82499501D01*
X101483996Y-82352994D01*
X101566211Y-82191639D01*
X101622171Y-82019409D01*
X101639587Y-81909448D01*
X101647527Y-81859321D01*
X101677456Y-81796186D01*
X101736768Y-81759255D01*
X101806630Y-81760253D01*
X101864863Y-81798863D01*
X101892473Y-81859321D01*
X101917829Y-82019410D01*
X101973787Y-82191636D01*
X101973788Y-82191639D01*
X102028747Y-82299500D01*
X102049600Y-82340426D01*
X102056006Y-82352997D01*
X102162441Y-82499494D01*
X102162445Y-82499499D01*
X102290500Y-82627554D01*
X102290505Y-82627558D01*
X102391710Y-82701087D01*
X102437006Y-82733996D01*
X102526885Y-82779792D01*
X102598360Y-82816211D01*
X102598363Y-82816212D01*
X102677997Y-82842086D01*
X102770591Y-82872171D01*
X102853429Y-82885291D01*
X102949449Y-82900500D01*
X102949454Y-82900500D01*
X103130551Y-82900500D01*
X103217259Y-82886765D01*
X103309409Y-82872171D01*
X103481639Y-82816211D01*
X103642994Y-82733996D01*
X103789501Y-82627553D01*
X103917553Y-82499501D01*
X104023996Y-82352994D01*
X104106211Y-82191639D01*
X104162171Y-82019409D01*
X104179587Y-81909448D01*
X104187527Y-81859321D01*
X104217456Y-81796186D01*
X104276768Y-81759255D01*
X104346630Y-81760253D01*
X104404863Y-81798863D01*
X104432473Y-81859321D01*
X104457829Y-82019410D01*
X104513787Y-82191636D01*
X104513788Y-82191639D01*
X104568747Y-82299500D01*
X104589600Y-82340426D01*
X104596006Y-82352997D01*
X104702441Y-82499494D01*
X104702445Y-82499499D01*
X104830500Y-82627554D01*
X104830505Y-82627558D01*
X104931710Y-82701087D01*
X104977006Y-82733996D01*
X105066885Y-82779792D01*
X105138360Y-82816211D01*
X105138363Y-82816212D01*
X105217997Y-82842086D01*
X105310591Y-82872171D01*
X105393429Y-82885291D01*
X105489449Y-82900500D01*
X105489454Y-82900500D01*
X105670551Y-82900500D01*
X105757259Y-82886765D01*
X105849409Y-82872171D01*
X106021639Y-82816211D01*
X106182994Y-82733996D01*
X106329501Y-82627553D01*
X106457553Y-82499501D01*
X106457555Y-82499497D01*
X106457558Y-82499495D01*
X106545682Y-82378202D01*
X106601011Y-82335536D01*
X106670625Y-82329557D01*
X106732420Y-82362162D01*
X106766777Y-82423001D01*
X106770000Y-82451087D01*
X106770000Y-82647844D01*
X106776401Y-82707372D01*
X106776403Y-82707379D01*
X106826645Y-82842086D01*
X106826649Y-82842093D01*
X106912809Y-82957187D01*
X106912812Y-82957190D01*
X107027906Y-83043350D01*
X107027913Y-83043354D01*
X107162620Y-83093596D01*
X107162627Y-83093598D01*
X107222155Y-83099999D01*
X107222172Y-83100000D01*
X107870000Y-83100000D01*
X107870000Y-82183012D01*
X107927007Y-82215925D01*
X108054174Y-82250000D01*
X108185826Y-82250000D01*
X108312993Y-82215925D01*
X108370000Y-82183012D01*
X108370000Y-83100000D01*
X109017828Y-83100000D01*
X109017844Y-83099999D01*
X109077372Y-83093598D01*
X109077379Y-83093596D01*
X109212086Y-83043354D01*
X109212093Y-83043350D01*
X109327187Y-82957190D01*
X109327190Y-82957187D01*
X109413350Y-82842093D01*
X109413354Y-82842086D01*
X109463596Y-82707379D01*
X109463598Y-82707372D01*
X109469999Y-82647844D01*
X109470000Y-82647827D01*
X109470000Y-82000000D01*
X108553012Y-82000000D01*
X108585925Y-81942993D01*
X108599130Y-81893713D01*
X112649500Y-81893713D01*
X112649500Y-82106286D01*
X112663018Y-82191639D01*
X112682754Y-82316243D01*
X112742298Y-82499501D01*
X112748444Y-82518414D01*
X112844951Y-82707820D01*
X112969890Y-82879786D01*
X113120213Y-83030109D01*
X113292179Y-83155048D01*
X113292181Y-83155049D01*
X113292184Y-83155051D01*
X113481588Y-83251557D01*
X113683757Y-83317246D01*
X113893713Y-83350500D01*
X113893714Y-83350500D01*
X114106286Y-83350500D01*
X114106287Y-83350500D01*
X114316243Y-83317246D01*
X114518412Y-83251557D01*
X114707816Y-83155051D01*
X114739842Y-83131783D01*
X114879786Y-83030109D01*
X114879788Y-83030106D01*
X114879792Y-83030104D01*
X115030104Y-82879792D01*
X115030106Y-82879788D01*
X115030109Y-82879786D01*
X115155048Y-82707820D01*
X115155047Y-82707820D01*
X115155051Y-82707816D01*
X115251557Y-82518412D01*
X115317246Y-82316243D01*
X115350500Y-82106287D01*
X115350500Y-81893713D01*
X115317246Y-81683757D01*
X115251557Y-81481588D01*
X115155051Y-81292184D01*
X115155049Y-81292181D01*
X115155048Y-81292179D01*
X115030109Y-81120213D01*
X114879786Y-80969890D01*
X114707820Y-80844951D01*
X114518414Y-80748444D01*
X114518413Y-80748443D01*
X114518412Y-80748443D01*
X114316243Y-80682754D01*
X114316241Y-80682753D01*
X114316240Y-80682753D01*
X114154957Y-80657208D01*
X114106287Y-80649500D01*
X113893713Y-80649500D01*
X113845042Y-80657208D01*
X113683760Y-80682753D01*
X113481585Y-80748444D01*
X113292179Y-80844951D01*
X113120213Y-80969890D01*
X112969890Y-81120213D01*
X112844951Y-81292179D01*
X112748444Y-81481585D01*
X112682753Y-81683760D01*
X112649500Y-81893713D01*
X108599130Y-81893713D01*
X108620000Y-81815826D01*
X108620000Y-81684174D01*
X108585925Y-81557007D01*
X108553012Y-81500000D01*
X109470000Y-81500000D01*
X109470000Y-80852172D01*
X109469999Y-80852155D01*
X109463598Y-80792627D01*
X109463596Y-80792620D01*
X109413354Y-80657913D01*
X109413350Y-80657906D01*
X109327190Y-80542812D01*
X109327187Y-80542809D01*
X109212093Y-80456649D01*
X109212086Y-80456645D01*
X109077379Y-80406403D01*
X109077372Y-80406401D01*
X109017844Y-80400000D01*
X108370000Y-80400000D01*
X108370000Y-81316988D01*
X108312993Y-81284075D01*
X108185826Y-81250000D01*
X108054174Y-81250000D01*
X107927007Y-81284075D01*
X107870000Y-81316988D01*
X107870000Y-80400000D01*
X107222155Y-80400000D01*
X107162627Y-80406401D01*
X107162620Y-80406403D01*
X107027913Y-80456645D01*
X107027906Y-80456649D01*
X106912812Y-80542809D01*
X106912809Y-80542812D01*
X106826649Y-80657906D01*
X106826645Y-80657913D01*
X106776403Y-80792620D01*
X106776401Y-80792627D01*
X106770000Y-80852155D01*
X106770000Y-81048912D01*
X106750315Y-81115951D01*
X106697511Y-81161706D01*
X106628353Y-81171650D01*
X106564797Y-81142625D01*
X106545682Y-81121797D01*
X106457558Y-81000505D01*
X106457554Y-81000500D01*
X106329499Y-80872445D01*
X106329494Y-80872441D01*
X106182997Y-80766006D01*
X106182996Y-80766005D01*
X106182994Y-80766004D01*
X106131300Y-80739664D01*
X106021639Y-80683788D01*
X106021636Y-80683787D01*
X105849410Y-80627829D01*
X105670551Y-80599500D01*
X105670546Y-80599500D01*
X105489454Y-80599500D01*
X105489449Y-80599500D01*
X105310589Y-80627829D01*
X105138363Y-80683787D01*
X105138360Y-80683788D01*
X104977002Y-80766006D01*
X104830505Y-80872441D01*
X104830500Y-80872445D01*
X104702445Y-81000500D01*
X104702441Y-81000505D01*
X104596006Y-81147002D01*
X104513788Y-81308360D01*
X104513787Y-81308363D01*
X104457829Y-81480589D01*
X104432473Y-81640678D01*
X104402544Y-81703813D01*
X104343232Y-81740744D01*
X104273369Y-81739746D01*
X104215137Y-81701136D01*
X104187527Y-81640678D01*
X104165245Y-81500000D01*
X104162171Y-81480591D01*
X104106211Y-81308361D01*
X104106211Y-81308360D01*
X104047015Y-81192184D01*
X104023996Y-81147006D01*
X104006153Y-81122447D01*
X103917558Y-81000505D01*
X103917554Y-81000500D01*
X103789499Y-80872445D01*
X103789494Y-80872441D01*
X103642997Y-80766006D01*
X103642996Y-80766005D01*
X103642994Y-80766004D01*
X103591300Y-80739664D01*
X103481639Y-80683788D01*
X103481636Y-80683787D01*
X103309410Y-80627829D01*
X103130551Y-80599500D01*
X103130546Y-80599500D01*
X102949454Y-80599500D01*
X102949449Y-80599500D01*
X102770589Y-80627829D01*
X102598363Y-80683787D01*
X102598360Y-80683788D01*
X102437002Y-80766006D01*
X102290505Y-80872441D01*
X102290500Y-80872445D01*
X102162445Y-81000500D01*
X102162441Y-81000505D01*
X102056006Y-81147002D01*
X101973788Y-81308360D01*
X101973787Y-81308363D01*
X101917829Y-81480589D01*
X101892473Y-81640678D01*
X101862544Y-81703813D01*
X101803232Y-81740744D01*
X101733369Y-81739746D01*
X101675137Y-81701136D01*
X101647527Y-81640678D01*
X101625245Y-81500000D01*
X101622171Y-81480591D01*
X101566211Y-81308361D01*
X101566211Y-81308360D01*
X101507015Y-81192184D01*
X101483996Y-81147006D01*
X101466153Y-81122447D01*
X101377558Y-81000505D01*
X101377554Y-81000500D01*
X101249499Y-80872445D01*
X101249494Y-80872441D01*
X101102997Y-80766006D01*
X101102996Y-80766005D01*
X101102994Y-80766004D01*
X101051300Y-80739664D01*
X100941639Y-80683788D01*
X100941636Y-80683787D01*
X100769410Y-80627829D01*
X100590551Y-80599500D01*
X100590546Y-80599500D01*
X100409454Y-80599500D01*
X100409449Y-80599500D01*
X100230589Y-80627829D01*
X100058363Y-80683787D01*
X100058360Y-80683788D01*
X99897002Y-80766006D01*
X99750505Y-80872441D01*
X99750500Y-80872445D01*
X99622445Y-81000500D01*
X99622441Y-81000505D01*
X99516006Y-81147002D01*
X99433788Y-81308360D01*
X99433787Y-81308363D01*
X99377829Y-81480589D01*
X99349500Y-81659448D01*
X99349500Y-81840551D01*
X99377829Y-82019410D01*
X99433787Y-82191636D01*
X99433788Y-82191639D01*
X99488747Y-82299500D01*
X99509600Y-82340426D01*
X99516006Y-82352997D01*
X99622441Y-82499494D01*
X99622445Y-82499499D01*
X99750500Y-82627554D01*
X99750505Y-82627558D01*
X99832610Y-82687211D01*
X99875276Y-82742541D01*
X99881255Y-82812154D01*
X99848649Y-82873949D01*
X99791819Y-82907303D01*
X99751203Y-82918186D01*
X99668214Y-82940423D01*
X99668209Y-82940426D01*
X99531290Y-83019475D01*
X99531282Y-83019481D01*
X99419481Y-83131282D01*
X99419475Y-83131290D01*
X99340426Y-83268209D01*
X99340423Y-83268216D01*
X99299500Y-83420943D01*
X76498701Y-83420943D01*
X76568716Y-83380520D01*
X76680520Y-83268716D01*
X76759577Y-83131784D01*
X76800500Y-82979057D01*
X76800500Y-82820943D01*
X76759577Y-82668216D01*
X76736101Y-82627554D01*
X76680524Y-82531290D01*
X76680518Y-82531282D01*
X76568717Y-82419481D01*
X76568709Y-82419475D01*
X76431790Y-82340426D01*
X76431786Y-82340424D01*
X76431784Y-82340423D01*
X76279057Y-82299500D01*
X76120943Y-82299500D01*
X75968216Y-82340423D01*
X75968209Y-82340426D01*
X75831290Y-82419475D01*
X75831282Y-82419481D01*
X75719481Y-82531282D01*
X75719475Y-82531290D01*
X75640426Y-82668209D01*
X75640423Y-82668216D01*
X75599500Y-82820943D01*
X59988953Y-82820943D01*
X60030104Y-82779792D01*
X60030106Y-82779788D01*
X60030109Y-82779786D01*
X60155048Y-82607820D01*
X60155047Y-82607820D01*
X60155051Y-82607816D01*
X60251557Y-82418412D01*
X60317246Y-82216243D01*
X60350500Y-82006287D01*
X60350500Y-81909448D01*
X76959500Y-81909448D01*
X76959500Y-82090551D01*
X76987829Y-82269410D01*
X77043787Y-82441636D01*
X77043788Y-82441639D01*
X77126006Y-82602997D01*
X77232441Y-82749494D01*
X77232445Y-82749499D01*
X77360500Y-82877554D01*
X77360505Y-82877558D01*
X77470361Y-82957372D01*
X77507006Y-82983996D01*
X77612484Y-83037740D01*
X77668360Y-83066211D01*
X77668363Y-83066212D01*
X77747997Y-83092086D01*
X77840591Y-83122171D01*
X77923429Y-83135291D01*
X78019449Y-83150500D01*
X78019454Y-83150500D01*
X78200551Y-83150500D01*
X78287259Y-83136765D01*
X78379409Y-83122171D01*
X78551639Y-83066211D01*
X78712994Y-82983996D01*
X78859501Y-82877553D01*
X78987553Y-82749501D01*
X79093996Y-82602994D01*
X79176211Y-82441639D01*
X79232171Y-82269409D01*
X79251068Y-82150099D01*
X79257527Y-82109321D01*
X79287456Y-82046186D01*
X79346768Y-82009255D01*
X79416630Y-82010253D01*
X79474863Y-82048863D01*
X79502473Y-82109321D01*
X79527829Y-82269410D01*
X79583787Y-82441636D01*
X79583788Y-82441639D01*
X79666006Y-82602997D01*
X79772441Y-82749494D01*
X79772445Y-82749499D01*
X79900500Y-82877554D01*
X79900505Y-82877558D01*
X80010361Y-82957372D01*
X80047006Y-82983996D01*
X80152484Y-83037740D01*
X80208360Y-83066211D01*
X80208363Y-83066212D01*
X80287997Y-83092086D01*
X80380591Y-83122171D01*
X80463429Y-83135291D01*
X80559449Y-83150500D01*
X80559454Y-83150500D01*
X80740551Y-83150500D01*
X80827259Y-83136765D01*
X80919409Y-83122171D01*
X81091639Y-83066211D01*
X81252994Y-82983996D01*
X81399501Y-82877553D01*
X81527553Y-82749501D01*
X81633996Y-82602994D01*
X81716211Y-82441639D01*
X81772171Y-82269409D01*
X81791068Y-82150099D01*
X81797527Y-82109321D01*
X81827456Y-82046186D01*
X81886768Y-82009255D01*
X81956630Y-82010253D01*
X82014863Y-82048863D01*
X82042473Y-82109321D01*
X82067829Y-82269410D01*
X82123787Y-82441636D01*
X82123788Y-82441639D01*
X82206006Y-82602997D01*
X82312441Y-82749494D01*
X82312445Y-82749499D01*
X82440500Y-82877554D01*
X82440505Y-82877558D01*
X82550361Y-82957372D01*
X82587006Y-82983996D01*
X82692484Y-83037740D01*
X82748360Y-83066211D01*
X82748363Y-83066212D01*
X82827997Y-83092086D01*
X82920591Y-83122171D01*
X83003429Y-83135291D01*
X83099449Y-83150500D01*
X83099454Y-83150500D01*
X83280551Y-83150500D01*
X83367259Y-83136765D01*
X83459409Y-83122171D01*
X83631639Y-83066211D01*
X83792994Y-82983996D01*
X83939501Y-82877553D01*
X84067553Y-82749501D01*
X84173996Y-82602994D01*
X84256211Y-82441639D01*
X84312171Y-82269409D01*
X84331068Y-82150099D01*
X84337527Y-82109321D01*
X84367456Y-82046186D01*
X84426768Y-82009255D01*
X84496630Y-82010253D01*
X84554863Y-82048863D01*
X84582473Y-82109321D01*
X84607829Y-82269410D01*
X84663787Y-82441636D01*
X84663788Y-82441639D01*
X84746006Y-82602997D01*
X84852441Y-82749494D01*
X84852445Y-82749499D01*
X84980500Y-82877554D01*
X84980505Y-82877558D01*
X85090361Y-82957372D01*
X85127006Y-82983996D01*
X85232484Y-83037740D01*
X85288360Y-83066211D01*
X85288363Y-83066212D01*
X85367997Y-83092086D01*
X85460591Y-83122171D01*
X85543429Y-83135291D01*
X85639449Y-83150500D01*
X85639454Y-83150500D01*
X85820551Y-83150500D01*
X85907259Y-83136765D01*
X85999409Y-83122171D01*
X86171639Y-83066211D01*
X86332994Y-82983996D01*
X86479501Y-82877553D01*
X86607553Y-82749501D01*
X86713996Y-82602994D01*
X86796211Y-82441639D01*
X86852171Y-82269409D01*
X86871068Y-82150099D01*
X86877527Y-82109321D01*
X86907456Y-82046186D01*
X86966768Y-82009255D01*
X87036630Y-82010253D01*
X87094863Y-82048863D01*
X87122473Y-82109321D01*
X87147829Y-82269410D01*
X87203787Y-82441636D01*
X87203788Y-82441639D01*
X87286006Y-82602997D01*
X87392441Y-82749494D01*
X87392445Y-82749499D01*
X87520500Y-82877554D01*
X87520505Y-82877558D01*
X87630361Y-82957372D01*
X87667006Y-82983996D01*
X87772484Y-83037740D01*
X87828360Y-83066211D01*
X87828363Y-83066212D01*
X87907997Y-83092086D01*
X88000591Y-83122171D01*
X88083429Y-83135291D01*
X88179449Y-83150500D01*
X88179454Y-83150500D01*
X88360551Y-83150500D01*
X88447259Y-83136765D01*
X88539409Y-83122171D01*
X88711639Y-83066211D01*
X88872994Y-82983996D01*
X89019501Y-82877553D01*
X89147553Y-82749501D01*
X89253996Y-82602994D01*
X89336211Y-82441639D01*
X89392171Y-82269409D01*
X89411068Y-82150099D01*
X89417527Y-82109321D01*
X89447456Y-82046186D01*
X89506768Y-82009255D01*
X89576630Y-82010253D01*
X89634863Y-82048863D01*
X89662473Y-82109321D01*
X89687829Y-82269410D01*
X89743787Y-82441636D01*
X89743788Y-82441639D01*
X89826006Y-82602997D01*
X89932441Y-82749494D01*
X89932445Y-82749499D01*
X90060500Y-82877554D01*
X90060505Y-82877558D01*
X90170361Y-82957372D01*
X90207006Y-82983996D01*
X90312484Y-83037740D01*
X90368360Y-83066211D01*
X90368363Y-83066212D01*
X90447997Y-83092086D01*
X90540591Y-83122171D01*
X90623429Y-83135291D01*
X90719449Y-83150500D01*
X90719454Y-83150500D01*
X90900551Y-83150500D01*
X90987259Y-83136765D01*
X91079409Y-83122171D01*
X91251639Y-83066211D01*
X91412994Y-82983996D01*
X91559501Y-82877553D01*
X91687553Y-82749501D01*
X91793996Y-82602994D01*
X91876211Y-82441639D01*
X91932171Y-82269409D01*
X91951068Y-82150099D01*
X91957527Y-82109321D01*
X91987456Y-82046186D01*
X92046768Y-82009255D01*
X92116630Y-82010253D01*
X92174863Y-82048863D01*
X92202473Y-82109321D01*
X92227829Y-82269410D01*
X92283787Y-82441636D01*
X92283788Y-82441639D01*
X92366006Y-82602997D01*
X92472441Y-82749494D01*
X92472445Y-82749499D01*
X92600500Y-82877554D01*
X92600505Y-82877558D01*
X92710361Y-82957372D01*
X92747006Y-82983996D01*
X92852484Y-83037740D01*
X92908360Y-83066211D01*
X92908363Y-83066212D01*
X92987997Y-83092086D01*
X93080591Y-83122171D01*
X93163429Y-83135291D01*
X93259449Y-83150500D01*
X93259454Y-83150500D01*
X93440551Y-83150500D01*
X93527259Y-83136765D01*
X93619409Y-83122171D01*
X93791639Y-83066211D01*
X93952994Y-82983996D01*
X94099501Y-82877553D01*
X94227553Y-82749501D01*
X94227555Y-82749497D01*
X94227558Y-82749495D01*
X94315682Y-82628202D01*
X94371011Y-82585536D01*
X94440625Y-82579557D01*
X94502420Y-82612162D01*
X94536777Y-82673001D01*
X94540000Y-82701087D01*
X94540000Y-82897844D01*
X94546401Y-82957372D01*
X94546403Y-82957379D01*
X94596645Y-83092086D01*
X94596649Y-83092093D01*
X94682809Y-83207187D01*
X94682812Y-83207190D01*
X94797906Y-83293350D01*
X94797913Y-83293354D01*
X94932620Y-83343596D01*
X94932627Y-83343598D01*
X94992155Y-83349999D01*
X94992172Y-83350000D01*
X95640000Y-83350000D01*
X95640000Y-82433012D01*
X95697007Y-82465925D01*
X95824174Y-82500000D01*
X95955826Y-82500000D01*
X96082993Y-82465925D01*
X96140000Y-82433012D01*
X96140000Y-83350000D01*
X96787828Y-83350000D01*
X96787844Y-83349999D01*
X96847372Y-83343598D01*
X96847379Y-83343596D01*
X96973293Y-83296634D01*
X96973294Y-83296633D01*
X96982084Y-83293355D01*
X96982093Y-83293350D01*
X97097187Y-83207190D01*
X97097190Y-83207187D01*
X97183350Y-83092093D01*
X97183354Y-83092086D01*
X97233596Y-82957379D01*
X97233598Y-82957372D01*
X97239999Y-82897844D01*
X97240000Y-82897827D01*
X97240000Y-82250000D01*
X96323012Y-82250000D01*
X96355925Y-82192993D01*
X96390000Y-82065826D01*
X96390000Y-81934174D01*
X96355925Y-81807007D01*
X96323012Y-81750000D01*
X97240000Y-81750000D01*
X97240000Y-81102172D01*
X97239999Y-81102155D01*
X97233598Y-81042627D01*
X97233596Y-81042620D01*
X97183354Y-80907913D01*
X97183350Y-80907906D01*
X97097190Y-80792812D01*
X97097187Y-80792809D01*
X96982093Y-80706649D01*
X96982086Y-80706645D01*
X96847379Y-80656403D01*
X96847372Y-80656401D01*
X96787844Y-80650000D01*
X96140000Y-80650000D01*
X96140000Y-81566988D01*
X96082993Y-81534075D01*
X95955826Y-81500000D01*
X95824174Y-81500000D01*
X95697007Y-81534075D01*
X95640000Y-81566988D01*
X95640000Y-80650000D01*
X94992155Y-80650000D01*
X94932627Y-80656401D01*
X94932620Y-80656403D01*
X94797913Y-80706645D01*
X94797906Y-80706649D01*
X94682812Y-80792809D01*
X94682809Y-80792812D01*
X94596649Y-80907906D01*
X94596645Y-80907913D01*
X94546403Y-81042620D01*
X94546401Y-81042627D01*
X94540000Y-81102155D01*
X94540000Y-81298912D01*
X94520315Y-81365951D01*
X94467511Y-81411706D01*
X94398353Y-81421650D01*
X94334797Y-81392625D01*
X94315682Y-81371797D01*
X94227558Y-81250505D01*
X94227554Y-81250500D01*
X94099499Y-81122445D01*
X94099494Y-81122441D01*
X93952997Y-81016006D01*
X93952996Y-81016005D01*
X93952994Y-81016004D01*
X93862491Y-80969890D01*
X93791639Y-80933788D01*
X93791636Y-80933787D01*
X93619410Y-80877829D01*
X93440551Y-80849500D01*
X93440546Y-80849500D01*
X93259454Y-80849500D01*
X93259449Y-80849500D01*
X93080589Y-80877829D01*
X92908363Y-80933787D01*
X92908360Y-80933788D01*
X92747002Y-81016006D01*
X92600505Y-81122441D01*
X92600500Y-81122445D01*
X92472445Y-81250500D01*
X92472441Y-81250505D01*
X92366006Y-81397002D01*
X92283788Y-81558360D01*
X92283787Y-81558363D01*
X92227829Y-81730589D01*
X92202473Y-81890678D01*
X92172544Y-81953813D01*
X92113232Y-81990744D01*
X92043369Y-81989746D01*
X91985137Y-81951136D01*
X91957527Y-81890678D01*
X91942560Y-81796186D01*
X91932171Y-81730591D01*
X91889708Y-81599901D01*
X91876212Y-81558363D01*
X91876211Y-81558360D01*
X91846474Y-81500000D01*
X91793996Y-81397006D01*
X91771433Y-81365951D01*
X91687558Y-81250505D01*
X91687554Y-81250500D01*
X91559499Y-81122445D01*
X91559494Y-81122441D01*
X91412997Y-81016006D01*
X91412996Y-81016005D01*
X91412994Y-81016004D01*
X91322491Y-80969890D01*
X91251639Y-80933788D01*
X91251636Y-80933787D01*
X91079410Y-80877829D01*
X90900551Y-80849500D01*
X90900546Y-80849500D01*
X90719454Y-80849500D01*
X90719449Y-80849500D01*
X90540589Y-80877829D01*
X90368363Y-80933787D01*
X90368360Y-80933788D01*
X90207002Y-81016006D01*
X90060505Y-81122441D01*
X90060500Y-81122445D01*
X89932445Y-81250500D01*
X89932441Y-81250505D01*
X89826006Y-81397002D01*
X89743788Y-81558360D01*
X89743787Y-81558363D01*
X89687829Y-81730589D01*
X89662473Y-81890678D01*
X89632544Y-81953813D01*
X89573232Y-81990744D01*
X89503369Y-81989746D01*
X89445137Y-81951136D01*
X89417527Y-81890678D01*
X89402560Y-81796186D01*
X89392171Y-81730591D01*
X89349708Y-81599901D01*
X89336212Y-81558363D01*
X89336211Y-81558360D01*
X89306474Y-81500000D01*
X89253996Y-81397006D01*
X89231433Y-81365951D01*
X89147558Y-81250505D01*
X89147554Y-81250500D01*
X89019499Y-81122445D01*
X89019494Y-81122441D01*
X88872997Y-81016006D01*
X88872996Y-81016005D01*
X88872994Y-81016004D01*
X88782491Y-80969890D01*
X88711639Y-80933788D01*
X88711636Y-80933787D01*
X88539410Y-80877829D01*
X88360551Y-80849500D01*
X88360546Y-80849500D01*
X88179454Y-80849500D01*
X88179449Y-80849500D01*
X88000589Y-80877829D01*
X87828363Y-80933787D01*
X87828360Y-80933788D01*
X87667002Y-81016006D01*
X87520505Y-81122441D01*
X87520500Y-81122445D01*
X87392445Y-81250500D01*
X87392441Y-81250505D01*
X87286006Y-81397002D01*
X87203788Y-81558360D01*
X87203787Y-81558363D01*
X87147829Y-81730589D01*
X87122473Y-81890678D01*
X87092544Y-81953813D01*
X87033232Y-81990744D01*
X86963369Y-81989746D01*
X86905137Y-81951136D01*
X86877527Y-81890678D01*
X86862560Y-81796186D01*
X86852171Y-81730591D01*
X86809708Y-81599901D01*
X86796212Y-81558363D01*
X86796211Y-81558360D01*
X86766474Y-81500000D01*
X86713996Y-81397006D01*
X86691433Y-81365951D01*
X86607558Y-81250505D01*
X86607554Y-81250500D01*
X86479499Y-81122445D01*
X86479494Y-81122441D01*
X86332997Y-81016006D01*
X86332996Y-81016005D01*
X86332994Y-81016004D01*
X86242491Y-80969890D01*
X86171639Y-80933788D01*
X86171636Y-80933787D01*
X85999410Y-80877829D01*
X85820551Y-80849500D01*
X85820546Y-80849500D01*
X85639454Y-80849500D01*
X85639449Y-80849500D01*
X85460589Y-80877829D01*
X85288363Y-80933787D01*
X85288360Y-80933788D01*
X85127002Y-81016006D01*
X84980505Y-81122441D01*
X84980500Y-81122445D01*
X84852445Y-81250500D01*
X84852441Y-81250505D01*
X84746006Y-81397002D01*
X84663788Y-81558360D01*
X84663787Y-81558363D01*
X84607829Y-81730589D01*
X84582473Y-81890678D01*
X84552544Y-81953813D01*
X84493232Y-81990744D01*
X84423369Y-81989746D01*
X84365137Y-81951136D01*
X84337527Y-81890678D01*
X84322560Y-81796186D01*
X84312171Y-81730591D01*
X84269708Y-81599901D01*
X84256212Y-81558363D01*
X84256211Y-81558360D01*
X84226474Y-81500000D01*
X84173996Y-81397006D01*
X84151433Y-81365951D01*
X84067558Y-81250505D01*
X84067554Y-81250500D01*
X83939499Y-81122445D01*
X83939494Y-81122441D01*
X83792997Y-81016006D01*
X83792996Y-81016005D01*
X83792994Y-81016004D01*
X83702491Y-80969890D01*
X83631639Y-80933788D01*
X83631636Y-80933787D01*
X83459410Y-80877829D01*
X83280551Y-80849500D01*
X83280546Y-80849500D01*
X83099454Y-80849500D01*
X83099449Y-80849500D01*
X82920589Y-80877829D01*
X82748363Y-80933787D01*
X82748360Y-80933788D01*
X82587002Y-81016006D01*
X82440505Y-81122441D01*
X82440500Y-81122445D01*
X82312445Y-81250500D01*
X82312441Y-81250505D01*
X82206006Y-81397002D01*
X82123788Y-81558360D01*
X82123787Y-81558363D01*
X82067829Y-81730589D01*
X82042473Y-81890678D01*
X82012544Y-81953813D01*
X81953232Y-81990744D01*
X81883369Y-81989746D01*
X81825137Y-81951136D01*
X81797527Y-81890678D01*
X81782560Y-81796186D01*
X81772171Y-81730591D01*
X81729708Y-81599901D01*
X81716212Y-81558363D01*
X81716211Y-81558360D01*
X81686474Y-81500000D01*
X81633996Y-81397006D01*
X81611433Y-81365951D01*
X81527558Y-81250505D01*
X81527554Y-81250500D01*
X81399499Y-81122445D01*
X81399494Y-81122441D01*
X81252997Y-81016006D01*
X81252996Y-81016005D01*
X81252994Y-81016004D01*
X81162491Y-80969890D01*
X81091639Y-80933788D01*
X81091636Y-80933787D01*
X80919410Y-80877829D01*
X80740551Y-80849500D01*
X80740546Y-80849500D01*
X80559454Y-80849500D01*
X80559449Y-80849500D01*
X80380589Y-80877829D01*
X80208363Y-80933787D01*
X80208360Y-80933788D01*
X80047002Y-81016006D01*
X79900505Y-81122441D01*
X79900500Y-81122445D01*
X79772445Y-81250500D01*
X79772441Y-81250505D01*
X79666006Y-81397002D01*
X79583788Y-81558360D01*
X79583787Y-81558363D01*
X79527829Y-81730589D01*
X79502473Y-81890678D01*
X79472544Y-81953813D01*
X79413232Y-81990744D01*
X79343369Y-81989746D01*
X79285137Y-81951136D01*
X79257527Y-81890678D01*
X79242560Y-81796186D01*
X79232171Y-81730591D01*
X79189708Y-81599901D01*
X79176212Y-81558363D01*
X79176211Y-81558360D01*
X79146474Y-81500000D01*
X79093996Y-81397006D01*
X79071433Y-81365951D01*
X78987558Y-81250505D01*
X78987554Y-81250500D01*
X78859499Y-81122445D01*
X78859494Y-81122441D01*
X78712997Y-81016006D01*
X78712996Y-81016005D01*
X78712994Y-81016004D01*
X78622491Y-80969890D01*
X78551639Y-80933788D01*
X78551636Y-80933787D01*
X78379410Y-80877829D01*
X78200551Y-80849500D01*
X78200546Y-80849500D01*
X78019454Y-80849500D01*
X78019449Y-80849500D01*
X77840589Y-80877829D01*
X77668363Y-80933787D01*
X77668360Y-80933788D01*
X77507002Y-81016006D01*
X77360505Y-81122441D01*
X77360500Y-81122445D01*
X77232445Y-81250500D01*
X77232441Y-81250505D01*
X77126006Y-81397002D01*
X77043788Y-81558360D01*
X77043787Y-81558363D01*
X76987829Y-81730589D01*
X76959500Y-81909448D01*
X60350500Y-81909448D01*
X60350500Y-81793713D01*
X60317246Y-81583757D01*
X60251557Y-81381588D01*
X60194188Y-81268995D01*
X66549499Y-81268995D01*
X66576418Y-81404322D01*
X66576421Y-81404332D01*
X66629221Y-81531804D01*
X66629228Y-81531817D01*
X66705885Y-81646541D01*
X66705888Y-81646545D01*
X66803454Y-81744111D01*
X66803458Y-81744114D01*
X66918182Y-81820771D01*
X66918195Y-81820778D01*
X67045667Y-81873578D01*
X67045672Y-81873580D01*
X67045676Y-81873580D01*
X67045677Y-81873581D01*
X67181004Y-81900500D01*
X67181007Y-81900500D01*
X67318995Y-81900500D01*
X67410041Y-81882389D01*
X67454328Y-81873580D01*
X67581811Y-81820775D01*
X67696542Y-81744114D01*
X67794114Y-81646542D01*
X67870775Y-81531811D01*
X67923580Y-81404328D01*
X67942669Y-81308361D01*
X67950500Y-81268995D01*
X69549499Y-81268995D01*
X69576418Y-81404322D01*
X69576421Y-81404332D01*
X69629221Y-81531804D01*
X69629228Y-81531817D01*
X69705885Y-81646541D01*
X69705888Y-81646545D01*
X69803454Y-81744111D01*
X69803458Y-81744114D01*
X69918182Y-81820771D01*
X69918195Y-81820778D01*
X70045667Y-81873578D01*
X70045672Y-81873580D01*
X70045676Y-81873580D01*
X70045677Y-81873581D01*
X70181004Y-81900500D01*
X70181007Y-81900500D01*
X70318995Y-81900500D01*
X70410041Y-81882389D01*
X70454328Y-81873580D01*
X70581811Y-81820775D01*
X70589218Y-81815826D01*
X70610689Y-81801480D01*
X70672388Y-81760253D01*
X70696542Y-81744114D01*
X70794114Y-81646542D01*
X70870775Y-81531811D01*
X70923580Y-81404328D01*
X70942669Y-81308361D01*
X70950500Y-81268995D01*
X70950500Y-81131004D01*
X70923581Y-80995677D01*
X70923580Y-80995676D01*
X70923580Y-80995672D01*
X70912901Y-80969890D01*
X70870778Y-80868195D01*
X70870771Y-80868182D01*
X70794114Y-80753458D01*
X70794111Y-80753454D01*
X70696545Y-80655888D01*
X70696541Y-80655885D01*
X70581817Y-80579228D01*
X70581804Y-80579221D01*
X70454332Y-80526421D01*
X70454322Y-80526418D01*
X70318995Y-80499500D01*
X70318993Y-80499500D01*
X70181007Y-80499500D01*
X70181005Y-80499500D01*
X70045677Y-80526418D01*
X70045667Y-80526421D01*
X69918195Y-80579221D01*
X69918182Y-80579228D01*
X69803458Y-80655885D01*
X69803454Y-80655888D01*
X69705888Y-80753454D01*
X69705885Y-80753458D01*
X69629228Y-80868182D01*
X69629221Y-80868195D01*
X69576421Y-80995667D01*
X69576418Y-80995677D01*
X69549500Y-81131004D01*
X69549500Y-81131007D01*
X69549500Y-81268993D01*
X69549500Y-81268995D01*
X69549499Y-81268995D01*
X67950500Y-81268995D01*
X67950500Y-81131004D01*
X67923581Y-80995677D01*
X67923580Y-80995676D01*
X67923580Y-80995672D01*
X67912901Y-80969890D01*
X67870778Y-80868195D01*
X67870771Y-80868182D01*
X67794114Y-80753458D01*
X67794111Y-80753454D01*
X67696545Y-80655888D01*
X67696541Y-80655885D01*
X67581817Y-80579228D01*
X67581804Y-80579221D01*
X67454332Y-80526421D01*
X67454322Y-80526418D01*
X67318995Y-80499500D01*
X67318993Y-80499500D01*
X67181007Y-80499500D01*
X67181005Y-80499500D01*
X67045677Y-80526418D01*
X67045667Y-80526421D01*
X66918195Y-80579221D01*
X66918182Y-80579228D01*
X66803458Y-80655885D01*
X66803454Y-80655888D01*
X66705888Y-80753454D01*
X66705885Y-80753458D01*
X66629228Y-80868182D01*
X66629221Y-80868195D01*
X66576421Y-80995667D01*
X66576418Y-80995677D01*
X66549500Y-81131004D01*
X66549500Y-81131007D01*
X66549500Y-81268993D01*
X66549500Y-81268995D01*
X66549499Y-81268995D01*
X60194188Y-81268995D01*
X60155051Y-81192184D01*
X60155049Y-81192181D01*
X60155048Y-81192179D01*
X60030109Y-81020213D01*
X59879786Y-80869890D01*
X59707820Y-80744951D01*
X59518414Y-80648444D01*
X59518413Y-80648443D01*
X59518412Y-80648443D01*
X59316243Y-80582754D01*
X59316241Y-80582753D01*
X59316240Y-80582753D01*
X59154957Y-80557208D01*
X59106287Y-80549500D01*
X58893713Y-80549500D01*
X58845042Y-80557208D01*
X58683760Y-80582753D01*
X58481585Y-80648444D01*
X58292179Y-80744951D01*
X58120213Y-80869890D01*
X57969890Y-81020213D01*
X57844951Y-81192179D01*
X57748444Y-81381585D01*
X57682753Y-81583760D01*
X57651457Y-81781354D01*
X57649500Y-81793713D01*
X56512978Y-81793713D01*
X56518271Y-81706201D01*
X56520076Y-81691340D01*
X56525920Y-81659454D01*
X56571780Y-81409197D01*
X56575364Y-81394663D01*
X56575999Y-81392625D01*
X56660696Y-81120822D01*
X56665998Y-81106841D01*
X56783731Y-80845249D01*
X56790676Y-80832016D01*
X56939080Y-80586526D01*
X56947567Y-80574230D01*
X57124480Y-80348417D01*
X57134395Y-80337226D01*
X57337226Y-80134395D01*
X57348417Y-80124480D01*
X57574230Y-79947567D01*
X57586526Y-79939080D01*
X57832016Y-79790676D01*
X57845249Y-79783731D01*
X58106841Y-79665998D01*
X58120822Y-79660696D01*
X58394668Y-79575362D01*
X58409197Y-79571780D01*
X58691344Y-79520075D01*
X58706201Y-79518271D01*
X58996264Y-79500726D01*
X59003751Y-79500500D01*
X59065892Y-79500500D01*
X113934108Y-79500500D01*
X113996249Y-79500500D01*
X114003736Y-79500726D01*
G37*
%TD.AperFunction*%
%TD*%
M02*
