%TF.GenerationSoftware,KiCad,Pcbnew,9.0.3*%
%TF.CreationDate,2025-09-24T15:40:22-07:00*%
%TF.ProjectId,linklet,6c696e6b-6c65-4742-9e6b-696361645f70,rev?*%
%TF.SameCoordinates,Original*%
%TF.FileFunction,Soldermask,Top*%
%TF.FilePolarity,Negative*%
%FSLAX46Y46*%
G04 Gerber Fmt 4.6, Leading zero omitted, Abs format (unit mm)*
G04 Created by KiCad (PCBNEW 9.0.3) date 2025-09-24 15:40:22*
%MOMM*%
%LPD*%
G01*
G04 APERTURE LIST*
G04 Aperture macros list*
%AMRoundRect*
0 Rectangle with rounded corners*
0 $1 Rounding radius*
0 $2 $3 $4 $5 $6 $7 $8 $9 X,Y pos of 4 corners*
0 Add a 4 corners polygon primitive as box body*
4,1,4,$2,$3,$4,$5,$6,$7,$8,$9,$2,$3,0*
0 Add four circle primitives for the rounded corners*
1,1,$1+$1,$2,$3*
1,1,$1+$1,$4,$5*
1,1,$1+$1,$6,$7*
1,1,$1+$1,$8,$9*
0 Add four rect primitives between the rounded corners*
20,1,$1+$1,$2,$3,$4,$5,0*
20,1,$1+$1,$4,$5,$6,$7,0*
20,1,$1+$1,$6,$7,$8,$9,0*
20,1,$1+$1,$8,$9,$2,$3,0*%
G04 Aperture macros list end*
%ADD10RoundRect,0.140000X0.140000X0.170000X-0.140000X0.170000X-0.140000X-0.170000X0.140000X-0.170000X0*%
%ADD11C,2.000000*%
%ADD12R,1.700000X1.700000*%
%ADD13C,1.700000*%
%ADD14RoundRect,0.317500X-0.317500X1.157500X-0.317500X-1.157500X0.317500X-1.157500X0.317500X1.157500X0*%
%ADD15RoundRect,0.135000X-0.135000X-0.185000X0.135000X-0.185000X0.135000X0.185000X-0.135000X0.185000X0*%
%ADD16RoundRect,0.225000X-0.225000X-0.250000X0.225000X-0.250000X0.225000X0.250000X-0.225000X0.250000X0*%
%ADD17RoundRect,0.140000X0.170000X-0.140000X0.170000X0.140000X-0.170000X0.140000X-0.170000X-0.140000X0*%
%ADD18RoundRect,0.135000X-0.185000X0.135000X-0.185000X-0.135000X0.185000X-0.135000X0.185000X0.135000X0*%
%ADD19C,2.200000*%
%ADD20O,0.800000X0.800000*%
%ADD21R,1.300000X0.450000*%
%ADD22O,1.800000X1.150000*%
%ADD23O,2.000000X1.450000*%
%ADD24RoundRect,0.075000X-0.662500X-0.075000X0.662500X-0.075000X0.662500X0.075000X-0.662500X0.075000X0*%
%ADD25RoundRect,0.075000X-0.075000X-0.662500X0.075000X-0.662500X0.075000X0.662500X-0.075000X0.662500X0*%
%ADD26R,1.000000X0.800000*%
%ADD27C,0.900000*%
%ADD28R,0.700000X1.500000*%
%ADD29R,2.290000X5.080000*%
%ADD30R,2.420000X5.080000*%
%ADD31RoundRect,0.375000X-0.375000X0.625000X-0.375000X-0.625000X0.375000X-0.625000X0.375000X0.625000X0*%
%ADD32RoundRect,0.500000X-1.400000X0.500000X-1.400000X-0.500000X1.400000X-0.500000X1.400000X0.500000X0*%
%ADD33RoundRect,0.250000X-0.350000X0.450000X-0.350000X-0.450000X0.350000X-0.450000X0.350000X0.450000X0*%
%ADD34RoundRect,0.140000X-0.140000X-0.170000X0.140000X-0.170000X0.140000X0.170000X-0.140000X0.170000X0*%
%ADD35RoundRect,0.250000X0.475000X-0.250000X0.475000X0.250000X-0.475000X0.250000X-0.475000X-0.250000X0*%
%ADD36RoundRect,0.218750X0.256250X-0.218750X0.256250X0.218750X-0.256250X0.218750X-0.256250X-0.218750X0*%
%ADD37RoundRect,0.218750X-0.256250X0.218750X-0.256250X-0.218750X0.256250X-0.218750X0.256250X0.218750X0*%
%ADD38RoundRect,0.250000X-0.250000X-0.475000X0.250000X-0.475000X0.250000X0.475000X-0.250000X0.475000X0*%
%ADD39RoundRect,0.135000X0.135000X0.185000X-0.135000X0.185000X-0.135000X-0.185000X0.135000X-0.185000X0*%
%ADD40R,1.000000X1.500000*%
%ADD41RoundRect,0.140000X-0.170000X0.140000X-0.170000X-0.140000X0.170000X-0.140000X0.170000X0.140000X0*%
G04 APERTURE END LIST*
%TO.C,JP1*%
G36*
X76550000Y-104550000D02*
G01*
X76250000Y-104550000D01*
X76250000Y-103050000D01*
X76550000Y-103050000D01*
X76550000Y-104550000D01*
G37*
%TD*%
D10*
%TO.C,C1*%
X97980000Y-103312500D03*
X97020000Y-103312500D03*
%TD*%
D11*
%TO.C,FID1*%
X109800000Y-112500000D03*
%TD*%
D12*
%TO.C,J7*%
X95890000Y-82000000D03*
D13*
X93350000Y-82000000D03*
X90810000Y-82000000D03*
X88270000Y-82000000D03*
X85730000Y-82000000D03*
X83190000Y-82000000D03*
X80650000Y-82000000D03*
X78110000Y-82000000D03*
%TD*%
D14*
%TO.C,U3*%
X73200000Y-88225000D03*
X71200000Y-88225000D03*
X69200000Y-88225000D03*
X67200000Y-88225000D03*
X65200000Y-88225000D03*
X63200000Y-88225000D03*
X61200000Y-88225000D03*
X59200000Y-88225000D03*
X59200000Y-103275000D03*
X61200000Y-103275000D03*
X63200000Y-103275000D03*
X65200000Y-103275000D03*
X67200000Y-103275000D03*
X69200000Y-103275000D03*
X71200000Y-103275000D03*
X73200000Y-103275000D03*
%TD*%
D15*
%TO.C,R8*%
X90690000Y-85500000D03*
X91710000Y-85500000D03*
%TD*%
D16*
%TO.C,C5*%
X91825000Y-89812500D03*
X93375000Y-89812500D03*
%TD*%
D17*
%TO.C,C4*%
X88887500Y-94792500D03*
X88887500Y-93832500D03*
%TD*%
D18*
%TO.C,R3*%
X112200000Y-102090000D03*
X112200000Y-103110000D03*
%TD*%
D19*
%TO.C,H4*%
X59000000Y-111800000D03*
%TD*%
D18*
%TO.C,R7*%
X77000000Y-86352500D03*
X77000000Y-87372500D03*
%TD*%
D11*
%TO.C,FID3*%
X76600000Y-98800000D03*
%TD*%
D20*
%TO.C,J1*%
X112345000Y-98740000D03*
X112345000Y-93740000D03*
D21*
X111245000Y-97540000D03*
X111245000Y-96890000D03*
X111245000Y-96240000D03*
X111245000Y-95590000D03*
X111245000Y-94940000D03*
D22*
X115095000Y-100115000D03*
D23*
X111295000Y-99965000D03*
X111295000Y-92515000D03*
D22*
X115095000Y-92365000D03*
%TD*%
D10*
%TO.C,C7*%
X88867500Y-101792500D03*
X87907500Y-101792500D03*
%TD*%
D12*
%TO.C,J2*%
X108120000Y-81750000D03*
D13*
X105580000Y-81750000D03*
X103040000Y-81750000D03*
X100500000Y-81750000D03*
%TD*%
D24*
%TO.C,U1*%
X90887500Y-94812500D03*
X90887500Y-95312500D03*
X90887500Y-95812500D03*
X90887500Y-96312500D03*
X90887500Y-96812500D03*
X90887500Y-97312500D03*
X90887500Y-97812500D03*
X90887500Y-98312500D03*
X90887500Y-98812500D03*
X90887500Y-99312500D03*
X90887500Y-99812500D03*
X90887500Y-100312500D03*
D25*
X92300000Y-101725000D03*
X92800000Y-101725000D03*
X93300000Y-101725000D03*
X93800000Y-101725000D03*
X94300000Y-101725000D03*
X94800000Y-101725000D03*
X95300000Y-101725000D03*
X95800000Y-101725000D03*
X96300000Y-101725000D03*
X96800000Y-101725000D03*
X97300000Y-101725000D03*
X97800000Y-101725000D03*
D24*
X99212500Y-100312500D03*
X99212500Y-99812500D03*
X99212500Y-99312500D03*
X99212500Y-98812500D03*
X99212500Y-98312500D03*
X99212500Y-97812500D03*
X99212500Y-97312500D03*
X99212500Y-96812500D03*
X99212500Y-96312500D03*
X99212500Y-95812500D03*
X99212500Y-95312500D03*
X99212500Y-94812500D03*
D25*
X97800000Y-93400000D03*
X97300000Y-93400000D03*
X96800000Y-93400000D03*
X96300000Y-93400000D03*
X95800000Y-93400000D03*
X95300000Y-93400000D03*
X94800000Y-93400000D03*
X94300000Y-93400000D03*
X93800000Y-93400000D03*
X93300000Y-93400000D03*
X92800000Y-93400000D03*
X92300000Y-93400000D03*
%TD*%
D26*
%TO.C,SW1*%
X72400000Y-82310000D03*
X72400000Y-80100000D03*
D27*
X70250000Y-81200000D03*
X67250000Y-81200000D03*
D26*
X65100000Y-82310000D03*
X65100000Y-80100000D03*
D28*
X71000000Y-82960000D03*
X68000000Y-82960000D03*
X66500000Y-82960000D03*
%TD*%
D29*
%TO.C,J6*%
X68000000Y-111700000D03*
D30*
X63620000Y-111700000D03*
X72380000Y-111700000D03*
%TD*%
D17*
%TO.C,C6*%
X89000000Y-99080000D03*
X89000000Y-98120000D03*
%TD*%
D12*
%TO.C,J4*%
X84080000Y-112200000D03*
D13*
X81540000Y-112200000D03*
X79000000Y-112200000D03*
X76460000Y-112200000D03*
%TD*%
D31*
%TO.C,U2*%
X107250000Y-102800000D03*
X104950000Y-102800000D03*
D32*
X104950000Y-109100000D03*
D31*
X102650000Y-102800000D03*
%TD*%
D19*
%TO.C,H1*%
X114000000Y-82000000D03*
%TD*%
D33*
%TO.C,Y1*%
X83537500Y-96712500D03*
X83537500Y-98912500D03*
X85237500Y-98912500D03*
X85237500Y-96712500D03*
%TD*%
D19*
%TO.C,H3*%
X59000000Y-81900000D03*
%TD*%
D15*
%TO.C,R9*%
X93290000Y-85500000D03*
X94310000Y-85500000D03*
%TD*%
D17*
%TO.C,C11*%
X86887500Y-99292500D03*
X86887500Y-98332500D03*
%TD*%
D34*
%TO.C,C3*%
X92120000Y-91600000D03*
X93080000Y-91600000D03*
%TD*%
D35*
%TO.C,C13*%
X109950000Y-106550000D03*
X109950000Y-104650000D03*
%TD*%
D19*
%TO.C,H2*%
X114000000Y-112000000D03*
%TD*%
D17*
%TO.C,C10*%
X86887500Y-97312500D03*
X86887500Y-96352500D03*
%TD*%
D15*
%TO.C,R4*%
X81490000Y-109700000D03*
X82510000Y-109700000D03*
%TD*%
D36*
%TO.C,D2*%
X79000000Y-90400000D03*
X79000000Y-88825000D03*
%TD*%
D15*
%TO.C,R1*%
X68240000Y-85000000D03*
X69260000Y-85000000D03*
%TD*%
D37*
%TO.C,FB1*%
X90387500Y-102025000D03*
X90387500Y-103600000D03*
%TD*%
D18*
%TO.C,R2*%
X105600000Y-95190000D03*
X105600000Y-96210000D03*
%TD*%
%TO.C,R6*%
X79010000Y-86352500D03*
X79010000Y-87372500D03*
%TD*%
D37*
%TO.C,D1*%
X112200000Y-104562500D03*
X112200000Y-106137500D03*
%TD*%
D34*
%TO.C,C9*%
X92407500Y-103562500D03*
X93367500Y-103562500D03*
%TD*%
D36*
%TO.C,D3*%
X77000000Y-90400000D03*
X77000000Y-88825000D03*
%TD*%
D38*
%TO.C,C12*%
X103750000Y-100350000D03*
X105650000Y-100350000D03*
%TD*%
D39*
%TO.C,R5*%
X79010000Y-109700000D03*
X77990000Y-109700000D03*
%TD*%
D10*
%TO.C,C8*%
X88867500Y-103312500D03*
X87907500Y-103312500D03*
%TD*%
D40*
%TO.C,JP1*%
X77050000Y-103800000D03*
X75750000Y-103800000D03*
%TD*%
D11*
%TO.C,FID2*%
X99000000Y-86600000D03*
%TD*%
D41*
%TO.C,C2*%
X101000000Y-94515000D03*
X101000000Y-95475000D03*
%TD*%
D12*
%TO.C,J3*%
X97120000Y-112200000D03*
D13*
X94580000Y-112200000D03*
X92040000Y-112200000D03*
X89500000Y-112200000D03*
%TD*%
M02*
