M48
; DRILL file {KiCad 9.0.3} date 2025-09-24T15:40:27-0700
; FORMAT={-:-/ absolute / metric / decimal}
; #@! TF.CreationDate,2025-09-24T15:40:27-07:00
; #@! TF.GenerationSoftware,Kicad,Pcbnew,9.0.3
; #@! TF.FileFunction,Plated,1,4,PTH
FMAT,2
METRIC
; #@! TA.AperFunction,Plated,PTH,ViaDrill
T1C0.300
; #@! TA.AperFunction,Plated,PTH,ComponentDrill
T2C0.460
; #@! TA.AperFunction,Plated,PTH,ComponentDrill
T3C0.550
; #@! TA.AperFunction,Plated,PTH,ComponentDrill
T4C0.850
; #@! TA.AperFunction,Plated,PTH,ComponentDrill
T5C1.000
%
G90
G05
T1
X58.4Y-86.3
X58.5Y-105.5
X60.0Y-106.0
X61.9Y-105.4
X62.4Y-108.6
X62.6Y-90.4
X65.2Y-90.9
X65.7Y-84.3
X66.2Y-106.4
X67.2Y-90.7
X67.8Y-86.0
X70.0Y-105.05
X70.2Y-85.0
X71.1Y-91.1
X72.1Y-83.5
X73.5Y-86.1
X73.5Y-107.9
X75.5Y-111.2
X76.2Y-82.9
X76.8Y-109.6
X77.0Y-85.6
X77.0Y-91.2
X78.7Y-104.6
X79.0Y-85.6
X79.0Y-91.2
X82.6Y-99.8
X82.8Y-109.1
X86.0Y-95.7
X86.6Y-104.75
X87.2Y-101.9
X87.45Y-97.96
X87.7Y-96.2
X87.7Y-104.5
X87.7Y-111.9
X88.0Y-93.8
X88.31Y-99.71
X88.6Y-102.45
X88.9Y-95.4
X89.75Y-105.65
X91.0Y-89.8
X91.3Y-91.6
X92.4Y-86.0
X92.5Y-100.5
X92.5Y-105.0
X92.65Y-97.7
X93.0Y-94.7
X93.107Y-98.357
X93.32Y-100.41
X93.4Y-104.35
X93.7Y-105.65
X94.194Y-100.488
X94.3Y-103.1
X94.49Y-94.69
X94.515Y-91.215
X94.7Y-110.0
X94.9Y-86.1
X94.992Y-100.535
X95.4Y-90.6
X96.5Y-100.5
X97.09Y-99.85
X97.6Y-83.1
X97.9Y-95.162
X97.9Y-98.0
X98.6Y-112.6
X98.9Y-103.3
X99.9Y-83.5
X101.0Y-93.9
X103.8Y-107.6
X104.4Y-104.4
X104.5Y-95.1
X105.4Y-104.4
X106.1Y-107.6
X106.6Y-104.4
X107.0Y-99.9
X107.0Y-100.8
X107.8Y-104.4
X108.6Y-106.5
X108.6Y-107.2
X109.5Y-103.6
X109.7Y-82.5
X110.4Y-103.6
X111.4Y-107.0
X112.8Y-94.9
X113.1Y-102.1
T2
X63.62Y-108.26
X72.38Y-108.26
T5
X76.46Y-112.2
X78.11Y-82.0
X79.0Y-112.2
X80.65Y-82.0
X81.54Y-112.2
X83.19Y-82.0
X84.08Y-112.2
X85.73Y-82.0
X88.27Y-82.0
X89.5Y-112.2
X90.81Y-82.0
X92.04Y-112.2
X93.35Y-82.0
X94.58Y-112.2
X95.89Y-82.0
X97.12Y-112.2
X100.5Y-81.75
X103.04Y-81.75
X105.58Y-81.75
X108.12Y-81.75
T3
G00X114.77Y-92.365
M15
G01X115.42Y-92.365
M16
G05
G00X114.77Y-100.115
M15
G01X115.42Y-100.115
M16
G05
T4
G00X111.02Y-92.515
M15
G01X111.57Y-92.515
M16
G05
G00X111.02Y-99.965
M15
G01X111.57Y-99.965
M16
G05
M30
